<?xml version="1.0" encoding="UTF-8" standalone="no"?><!DOCTYPE svg PUBLIC "-//W3C//DTD SVG 1.1//EN" "http://www.w3.org/Graphics/SVG/1.1/DTD/svg11.dtd"><svg width="100%" height="100%" viewBox="0 0 559 468" version="1.1" xmlns="http://www.w3.org/2000/svg" xmlns:xlink="http://www.w3.org/1999/xlink" xml:space="preserve" style="fill-rule:evenodd;clip-rule:evenodd;stroke-linejoin:round;stroke-miterlimit:1.41421;"><rect id="Artboard1" x="0" y="0" width="559" height="468" style="fill:none;"/><clipPath id="_clip1"><rect x="21.714" y="20.099" width="468" height="416"/></clipPath><g clip-path="url(#_clip1)"><g><path d="M320.021,120.17c-7,1.023 -13.939,3.951 -19.622,8.281c-1.754,1.337 -5.277,4.79 -6.756,6.623c-5.156,6.389 -8.106,13.857 -8.791,22.257c-0.158,1.935 -0.203,21.229 -0.153,64.53c0.078,67.988 -0.025,62.632 1.308,67.72c4.315,16.471 18.798,28.527 36.259,30.184c3.086,0.292 126.752,0.289 129.881,-0.004c8.175,-0.765 15.531,-3.64 22.032,-8.61c1.86,-1.423 5.114,-4.645 6.686,-6.622c4.89,-6.149 7.774,-13.115 8.65,-20.898c0.136,-1.202 0.209,-23.617 0.209,-63.726c0,-52.999 -0.043,-62.243 -0.302,-64.447c-1.266,-10.789 -7.004,-20.677 -15.861,-27.333c-5.093,-3.827 -10.83,-6.358 -17.501,-7.722l-2.265,-0.463l-65.888,-0.031c-55.696,-0.026 -66.197,0.014 -67.886,0.261Zm35.498,40.878l1.647,0.854l-0.134,0.711c-0.074,0.392 -0.332,1.112 -0.577,1.606c-0.359,0.727 -0.638,0.981 -1.482,1.348c-0.577,0.252 -1.17,0.637 -1.332,0.865c-0.362,0.511 -1.129,0.367 -2.632,-0.495l-1.112,-0.637l0.14,-0.844c0.419,-2.533 1.674,-4.262 3.093,-4.262c0.463,0 1.359,0.32 2.389,0.854Zm-13.339,5.775c-0.461,0.906 -1.72,2.636 -1.919,2.636c-0.156,0 -0.716,-0.988 -0.733,-1.297c-0.015,-0.247 2.861,-2.407 2.933,-2.203c0.036,0.101 -0.092,0.494 -0.281,0.864Zm71.361,-0.267c0,0.104 0.34,0.298 0.772,0.443c0.433,0.144 0.845,0.299 0.937,0.352c0.197,0.113 -0.549,1.181 -1.587,2.273c-0.665,0.7 -0.959,0.865 -1.543,0.865c-1.647,0 -1.93,-1.346 -0.59,-2.801c0.987,-1.07 2.011,-1.647 2.011,-1.132Zm-58.994,1.462c0.326,1.017 -0.346,1.87 -2.673,3.391c-0.906,0.592 -1.823,1.276 -2.038,1.519c-0.382,0.433 -0.382,0.453 0,0.886c0.391,0.442 0.391,0.442 -0.124,0.315c-0.597,-0.147 -1.235,0.333 -1.235,0.93c0,0.268 0.114,0.359 0.36,0.289c0.198,-0.057 0.731,-0.159 1.184,-0.227c0.782,-0.117 0.843,-0.086 1.215,0.618c0.217,0.412 0.492,0.705 0.618,0.659c0.124,-0.046 0.258,-0.721 0.298,-1.503c0.069,-1.359 0.106,-1.45 0.844,-2.09l0.772,-0.669l0.937,0.823c0.701,0.616 1.038,1.122 1.339,2.008l0.401,1.184l1.833,0.062c1.565,0.054 10.418,-0.17 18.613,-0.47l2.368,-0.086l-1.236,0.288l-1.235,0.288l2.677,-0.066c2.862,-0.07 3.191,-0.031 3.191,0.375c0,0.277 -0.803,0.384 -5.003,0.668c-1.091,0.074 -1.997,0.224 -1.997,0.331c0,0.118 0.514,0.148 1.297,0.075c3.479,-0.322 4.85,-0.362 5.23,-0.155c0.297,0.162 0.669,0.105 1.554,-0.24c0.968,-0.376 1.144,-0.518 1.05,-0.844c-0.096,-0.333 -0.041,-0.371 0.371,-0.257c0.264,0.073 0.998,0.134 1.616,0.134c0.762,0 1.038,0.06 0.844,0.185c-0.244,0.157 -0.236,0.268 0.052,0.721c0.183,0.288 0.435,0.535 0.545,0.535c0.124,0 0.206,0.066 0.206,0.165c0,0.44 -3.418,0.859 -8.091,0.993c-3.892,0.111 -4.88,0.195 -4.88,0.417c0,0.192 -0.289,0.278 -0.927,0.278c-0.515,0 -0.926,-0.091 -0.926,-0.206c0,-0.326 -0.565,-0.226 -0.699,0.124c-0.07,0.185 -0.125,0.392 -0.125,0.473c0,0.171 1.009,0.116 1.482,-0.081c0.198,-0.082 0.556,0 0.824,0.188c0.597,0.42 0.673,0.412 1.18,-0.127l0.405,-0.433l2.142,0.347c2.162,0.35 2.821,0.302 2.821,-0.203c0,-0.205 0.267,-0.288 0.926,-0.288c0.68,0 0.927,0.083 0.927,0.309c0,0.26 0.298,0.288 1.904,0.175c1.05,-0.074 1.933,-0.203 1.967,-0.288c0.034,-0.086 0.422,-0.104 0.875,-0.041c0.494,0.068 0.93,0.012 1.112,-0.144c0.238,-0.206 0.391,-0.192 0.761,0.072c0.312,0.221 0.917,0.329 1.843,0.329c1.606,0 1.746,-0.163 1.507,-1.75c-0.307,-2.039 -1.684,-2.98 -3.38,-2.312c-0.989,0.389 -1.059,0.181 -0.186,-0.55c0.471,-0.395 0.865,-0.535 1.503,-0.535c1.853,0 3.015,1.297 3.171,3.541c0.086,1.235 0.351,1.503 0.874,0.885c0.186,-0.219 0.444,-0.288 0.773,-0.206c0.433,0.109 0.477,0.065 0.353,-0.35c-0.486,-1.626 -1.208,-2.819 -2.082,-3.436c-0.803,-0.568 -0.906,-0.732 -0.906,-1.443c0,-2.286 1.922,-3.796 3.974,-3.123c1.232,0.405 1.468,1.002 1.399,3.534c-0.062,2.306 0.115,2.81 0.763,2.162c0.224,-0.224 0.316,-0.638 0.289,-1.297c-0.058,-1.379 0.127,-2.054 0.596,-2.18c0.25,-0.067 0.65,-0.661 1.111,-1.65c0.757,-1.626 2.05,-3.004 2.863,-3.052c1.362,-0.08 1.633,0.314 1.478,2.146l-0.119,1.401l1.256,1.42c1.128,1.277 1.396,1.463 2.635,1.84c1.627,0.493 2.286,0.918 2.286,1.475c0,0.3 0.144,0.392 0.618,0.392c0.956,0 1.163,-0.659 0.632,-2.018c-0.233,-0.597 -0.427,-1.413 -0.427,-1.802l0,-0.71l0.989,0c1.232,0 1.423,0.185 2.399,2.326c0.777,1.705 0.741,1.359 1.035,9.925c0.077,2.244 1.026,10.399 1.425,12.251c0.159,0.74 0.532,2.718 0.834,4.427c0.302,1.709 0.738,4.054 0.976,5.25c0.835,4.2 1.003,5.616 0.882,7.433c-0.084,1.256 -0.025,2.175 0.201,3.161c0.175,0.761 0.273,1.469 0.216,1.565c-0.056,0.096 0.041,0.597 0.216,1.111c0.176,0.515 0.259,1.035 0.186,1.153c-0.078,0.127 -0.048,0.32 0.072,0.464c0.113,0.135 0.243,1.317 0.288,2.615c0.07,2.017 0.157,2.5 0.587,3.263l0.504,0.896l-0.473,0.35c-0.406,0.3 -0.453,0.473 -0.33,1.215c0.079,0.473 0.219,0.864 0.309,0.864c0.29,0 2.446,-4.406 2.448,-5.003c0.001,-0.309 0.075,-0.556 0.167,-0.556c0.268,0 1.323,-1.812 3.344,-5.744c1.534,-2.986 2.066,-3.844 2.411,-3.892c0.288,-0.04 0.403,-0.162 0.329,-0.35c-0.062,-0.158 0.427,-1.308 1.081,-2.543c0.906,-1.709 1.347,-2.332 1.823,-2.574c0.453,-0.23 0.521,-0.322 0.247,-0.329c-0.227,-0.006 -0.331,-0.115 -0.258,-0.268c0.069,-0.143 0.183,-0.422 0.258,-0.628c0.1,-0.278 0.278,-0.338 0.71,-0.241c0.659,0.147 0.989,-0.18 0.474,-0.469c-0.311,-0.173 -0.28,-0.299 0.267,-1.102c0.337,-0.494 0.768,-1.191 0.947,-1.534c0.18,-0.342 0.742,-1.091 1.236,-1.647c0.502,-0.565 1.288,-1.781 1.763,-2.728c1.416,-2.821 2.36,-4.205 3.817,-5.599c0.924,-0.884 1.817,-2.04 2.628,-3.399c1.046,-1.752 3.678,-5.58 6.867,-9.986c0.79,-1.091 0.822,-1.112 0.882,-0.566c0.034,0.309 0.127,0.571 0.206,0.576c0.076,0.006 0.329,0.152 0.535,0.309c0.375,0.286 0.316,0.412 -1.369,2.924c-0.967,1.441 -1.83,2.857 -1.915,3.14c-0.085,0.284 -0.378,0.782 -0.653,1.112c-0.584,0.7 -1.563,2.592 -1.416,2.738c0.12,0.12 1.151,-1.379 1.161,-1.688c0.007,-0.206 2.308,-1.987 2.421,-1.874c0.035,0.034 -0.213,0.772 -0.555,1.658c-0.343,0.885 -0.719,2.09 -0.845,2.707c-0.18,0.886 -0.385,1.248 -1.009,1.781c-0.478,0.41 -1.563,1.987 -2.797,4.067c-2.515,4.241 -4.2,7.036 -5.497,9.121c-0.551,0.886 -0.96,1.683 -0.897,1.75c0.153,0.166 0.138,0.186 2.792,-3.665c3.137,-4.55 4.912,-6.952 6.742,-9.121c1.198,-1.421 1.425,-1.791 1.099,-1.791c-0.227,0 -0.458,-0.075 -0.514,-0.165c-0.139,-0.226 3.749,-7.001 4.928,-8.586c0.505,-0.68 1.191,-1.699 1.525,-2.265c0.86,-1.462 7.708,-8.937 7.79,-8.504c0.036,0.193 -0.635,1.246 -1.488,2.337c-1.305,1.668 -1.507,2.025 -1.256,2.224c0.251,0.199 0.253,0.299 0.01,0.628c-0.228,0.309 -0.349,0.341 -0.577,0.154c-0.23,-0.189 -0.649,0.258 -2.079,2.214c-1.746,2.388 -2.115,3.021 -1.442,2.468c0.322,-0.265 2.169,-2.571 3.032,-3.786c0.205,-0.288 0.456,-0.515 0.572,-0.515c0.116,0 0.005,0.268 -0.258,0.618c-0.401,0.535 -0.427,0.684 -0.195,1.112c0.145,0.268 0.197,0.621 0.113,0.772c-0.085,0.152 -1.821,2.769 -3.845,5.796c-3.347,5.003 -4.219,6.468 -3.149,5.292c0.206,-0.227 0.462,-0.412 0.57,-0.412c0.106,0 -0.234,0.504 -0.741,1.101c-0.508,0.598 -1.003,1.371 -1.081,1.689c-0.141,0.571 -0.114,0.561 1.039,-0.381c0.659,-0.539 1.353,-0.968 1.565,-0.968c0.275,0 0.485,-0.288 0.752,-1.029c0.341,-0.947 0.424,-1.03 1.04,-1.03c0.432,0 0.669,-0.102 0.669,-0.288c0,-0.357 -0.515,-0.567 -0.968,-0.395c-0.391,0.148 -0.391,0.148 0.657,-1.849c0.799,-1.524 1.23,-1.907 1.459,-1.298c0.06,0.162 -0.033,0.628 -0.211,1.061c-0.179,0.432 -0.265,0.826 -0.196,0.896c0.238,0.238 0.807,-0.351 0.876,-0.906c0.048,-0.392 0.121,-0.494 0.226,-0.32c0.105,0.175 1.492,-1.4 4.334,-4.921c2.293,-2.841 4.217,-5.136 4.262,-5.085c0.046,0.051 -0.425,0.782 -1.06,1.647c-0.636,0.865 -1.143,1.605 -1.143,1.668c0,0.06 0.144,0.113 0.309,0.113c0.164,0 0.308,0.058 0.308,0.123c0,0.26 -2.326,3.41 -2.594,3.513c-0.35,0.135 -2.791,4.175 -2.655,4.394c0.054,0.088 -0.042,0.285 -0.207,0.422c-0.179,0.149 -0.257,0.422 -0.185,0.649c0.086,0.273 -0.882,2.069 -3.212,5.96c-1.838,3.068 -3.29,5.616 -3.233,5.673c0.145,0.145 2.77,-3.603 4.168,-5.95c1.815,-3.048 3.711,-4.665 2.149,-1.833c-0.954,1.73 -0.82,2.016 0.725,1.554c1.441,-0.432 1.47,-0.389 0.432,0.649c-0.864,0.865 -2.594,3.912 -2.594,4.571c0,0.453 -2.058,3.908 -2.409,4.044c-0.227,0.088 -0.27,0.187 -0.124,0.28c0.147,0.093 -1.301,2.903 -4.107,7.968c-2.384,4.304 -4.334,7.94 -4.334,8.082c0,0.143 -0.165,0.257 -0.371,0.257c-0.48,0 -1.215,0.947 -1.215,1.565c0,0.556 0.245,0.63 0.613,0.185c0.569,-0.688 0.367,-0.02 -0.787,2.595c-2.589,5.867 -9.312,21.681 -12.727,29.938c-1.047,2.532 -1.696,3.828 -2.047,4.091c-0.803,0.6 -1.2,1.524 -0.895,2.086c0.153,0.282 0.198,0.751 0.112,1.163c-0.077,0.371 -0.168,0.928 -0.196,1.205c-0.12,1.173 -0.815,3.087 -1.163,3.197c-0.223,0.071 -0.885,-0.209 -1.667,-0.706c-1.236,-0.784 -1.316,-0.807 -1.689,-0.474c-0.215,0.193 -0.58,0.721 -0.811,1.174c-0.535,1.05 -0.91,1.32 -1.845,1.33c-0.412,0.005 -1.017,0.108 -1.318,0.225c-0.432,0.168 -0.633,0.145 -0.906,-0.103c-0.311,-0.284 -0.387,-0.278 -0.686,0.051c-0.628,0.694 -0.262,2.1 0.896,3.439c0.446,0.514 0.82,1.022 0.82,1.111c0,0.089 -0.247,0.393 -0.535,0.659c-0.294,0.271 -0.706,0.886 -0.912,1.359c-0.439,1.009 -0.931,1.218 -1.909,0.811c-1.146,-0.477 -1.453,-1.12 -1.29,-2.705c0.092,-0.906 0.054,-1.488 -0.121,-1.802c-0.143,-0.257 -0.232,-0.71 -0.2,-1.019c0.081,-0.787 -0.167,-0.7 -0.989,0.35c-0.709,0.906 -1.839,1.544 -2.733,1.544c-0.66,0 -2.071,-0.741 -2.743,-1.441c-0.344,-0.358 -0.758,-1.009 -0.943,-1.482c-0.369,-0.948 -0.803,-1.27 -0.803,-0.597c0,0.386 -0.123,0.432 -1.153,0.432c-1.112,0 -1.148,-0.018 -1.029,-0.494c0.069,-0.278 -0.012,-0.752 -0.186,-1.081c-0.173,-0.33 -0.308,-0.781 -0.308,-1.03c0,-0.314 -0.186,-0.508 -0.639,-0.669l-0.638,-0.226l0.474,-0.381c0.444,-0.357 0.456,-0.422 0.195,-1.04c-0.151,-0.36 -0.587,-0.916 -0.957,-1.225c-0.366,-0.305 -0.837,-0.937 -1.019,-1.369c-0.183,-0.433 -0.565,-1.098 -0.827,-1.442c-0.895,-1.172 -1.386,-2.594 -1.565,-4.53c-0.094,-1.015 -0.502,-3.109 -0.903,-4.632c-0.401,-1.524 -0.817,-3.292 -0.921,-3.912c-0.458,-2.739 -0.438,-2.677 -0.901,-2.677c-0.288,0 -0.347,-0.055 -0.175,-0.165c0.195,-0.125 0.11,-0.432 -0.356,-1.276c-1.143,-2.073 -2.242,-6.095 -3.91,-14.31c-1.229,-6.054 -2.983,-15.896 -3.303,-18.531c-0.167,-1.38 -0.332,-1.969 -0.647,-2.307c-0.281,-0.302 -0.753,-1.729 -1.417,-4.282c-1.046,-4.026 -1.326,-5.951 -2.35,-16.143c-0.277,-2.759 -0.551,-5.07 -0.608,-5.125c-0.127,-0.126 -10.11,1.134 -10.933,1.379c-0.414,0.123 0.659,0.191 3.253,0.205c2.471,0.013 4.027,-0.062 4.303,-0.206c0.318,-0.167 0.752,-0.158 1.637,0.031c0.659,0.141 1.205,0.332 1.205,0.422c0,0.316 -1.503,0.635 -3.665,0.779c-1.421,0.095 -2.445,0.274 -2.883,0.504c-0.659,0.346 -1.874,0.455 -3.809,0.341c-0.844,-0.05 -1.066,0.015 -1.359,0.394c-0.339,0.438 -0.546,0.462 -6.414,0.751c-3.335,0.164 -6.527,0.391 -7.093,0.505c-0.571,0.114 -2.038,0.311 -3.294,0.442c-1.256,0.132 -2.816,0.292 -3.501,0.361l-1.235,0.123l-0.555,1.133c-0.565,1.154 -1.701,5.024 -1.904,6.485c-0.064,0.457 0.211,-0.185 0.616,-1.441c0.405,-1.256 0.896,-2.769 1.102,-3.397c0.296,-0.906 0.459,-1.133 0.813,-1.133c0.278,0 0.6,-0.257 0.865,-0.689c0.227,-0.371 0.474,-0.638 0.535,-0.577c0.062,0.062 -0.126,0.937 -0.414,1.925c-1.469,5.045 -5.073,18.326 -5.073,18.696c0,0.225 -0.187,1.009 -0.412,1.73c-0.227,0.726 -0.74,3.129 -1.143,5.353c-0.402,2.224 -0.96,5.006 -1.241,6.198c-0.817,3.456 -1.856,9.183 -2.652,14.618c-0.869,5.93 -1.945,12.133 -2.178,12.56c-0.101,0.186 -0.211,-0.144 -0.309,-0.926c-0.134,-1.07 0.044,-4.448 0.458,-8.689c0.126,-1.297 0.126,-1.297 -0.409,-1.297c-0.968,0 -1.263,1.07 -2.61,9.45c-0.444,2.759 -0.901,5.117 -1.014,5.23c-0.334,0.335 -0.288,0.762 0.082,0.762c0.271,0 0.306,0.165 0.196,0.927c-0.113,0.782 -0.081,0.926 0.206,0.926c0.247,0 0.323,0.155 0.278,0.566c-0.036,0.33 -0.191,0.567 -0.371,0.567c-0.42,0 -0.617,0.309 -0.617,0.967c0,0.599 -0.145,0.651 -1.215,0.437c-0.515,-0.103 -0.639,-0.225 -0.639,-0.632c0,-0.412 0.076,-0.486 0.412,-0.402c0.359,0.09 0.412,0 0.412,-0.7c0,-0.576 -0.087,-0.803 -0.309,-0.803c-0.234,0 -0.309,-0.247 -0.309,-1.029c0,-0.783 0.075,-1.03 0.309,-1.03c0.214,0 0.319,0.237 0.34,0.772c0.019,0.464 0.101,0.155 0.206,-0.772c0.096,-0.844 0.142,-1.777 0.103,-2.059c-0.048,-0.343 -0.083,-0.257 -0.103,0.258c-0.022,0.556 -0.123,0.772 -0.36,0.772c-0.266,0 -0.306,-0.124 -0.206,-0.639c0.067,-0.35 0.123,-0.768 0.123,-0.926c0,-0.156 0.175,-0.288 0.381,-0.288c0.333,0 0.398,-0.237 0.515,-1.884c0.073,-1.03 0.096,-1.926 0.051,-1.977c-0.046,-0.052 -0.231,0.165 -0.422,0.494c-0.322,0.557 -0.334,0.422 -0.234,-2.604c0.134,-4.075 0.557,-7.722 1.598,-13.796c0.455,-2.656 0.903,-5.674 0.994,-6.692c0.091,-1.029 0.233,-2.072 0.319,-2.347c0.116,-0.37 0.082,-0.469 -0.134,-0.396c-0.438,0.149 -0.803,0.993 -0.803,1.858c0,0.424 -0.173,1.205 -0.391,1.761c-0.215,0.548 -0.638,2.759 -0.937,4.9c-0.299,2.141 -0.729,4.738 -0.952,5.755c-0.489,2.224 -0.494,2.368 -0.088,2.368c0.194,0 0.302,0.144 0.263,0.35c-0.102,0.535 -0.537,0.55 -0.618,0.02c-0.08,-0.53 -0.474,2.142 -0.795,5.395c-0.485,4.921 -0.553,5.503 -0.685,5.93c-0.078,0.249 -0.266,1.678 -0.419,3.181l-0.278,2.728l-0.042,-4.941l-0.041,-4.942l-0.587,4.427c-0.322,2.429 -0.591,4.826 -0.597,5.312c-0.009,0.803 0.021,0.855 0.32,0.556c0.531,-0.531 0.751,-0.371 0.619,0.453c-0.069,0.432 -0.148,0.967 -0.177,1.194c-0.028,0.227 -0.125,0.523 -0.216,0.659c-0.09,0.136 -0.267,3.294 -0.391,7.001l-0.227,6.753l-0.772,1.544c-0.731,1.462 -0.783,1.517 -0.988,1.03c-0.21,-0.5 -0.217,-0.494 -0.237,0.206c-0.018,0.618 -0.051,0.666 -0.237,0.34c-0.125,-0.221 -0.216,-1.648 -0.216,-3.398c0,-2.018 -0.054,-2.781 -0.165,-2.306c-0.09,0.391 -0.266,0.747 -0.391,0.793c-0.129,0.047 -0.35,0.206 -0.515,0.37c-0.341,0.342 -0.421,0.248 -0.63,-0.741c-0.082,-0.391 -0.25,-0.843 -0.366,-0.988c-0.205,-0.256 -0.109,-6.939 0.178,-12.395c0.148,-2.801 -0.11,-2.921 -0.352,-0.165c-0.093,1.062 -0.31,2.924 -0.487,4.18c-0.175,1.241 -0.38,3.963 -0.453,6.022c-0.073,2.059 -0.199,3.758 -0.278,3.758c-0.207,0 -1.958,-4.592 -2.591,-6.795c-0.693,-2.409 -0.628,-4.297 0.225,-6.588c0.314,-0.845 0.617,-1.988 0.667,-2.523c0.071,-0.741 0.178,-0.978 0.443,-0.978c0.5,0 0.984,-1.173 0.908,-2.203c-0.035,-0.473 0.025,-0.921 0.132,-0.988c0.106,-0.067 0.139,-0.402 0.072,-0.731c-0.088,-0.432 0.019,-0.875 0.37,-1.534c0.374,-0.7 0.442,-1.01 0.278,-1.266c-0.162,-0.255 -0.113,-0.546 0.196,-1.164c0.381,-0.762 0.386,-0.867 0.072,-1.41c-0.214,-0.371 -0.26,-0.633 -0.123,-0.711c0.127,-0.072 0.161,-0.411 0.082,-0.823c-0.087,-0.456 0.014,-1.174 0.292,-2.059c0.503,-1.606 0.512,-1.73 0.13,-1.73c-0.154,0 -0.408,-0.144 -0.546,-0.309c-0.216,-0.26 -0.2,-0.37 0.103,-0.7c0.289,-0.313 0.316,-0.473 0.14,-0.803c-0.31,-0.576 -0.289,-0.685 0.118,-0.614c0.612,0.107 0.473,-0.354 -0.247,-0.818c-0.848,-0.547 -0.846,-0.524 -0.395,-5.383c0.375,-4.036 5.035,-31.066 5.398,-31.31c0.167,-0.112 1.279,-8.429 1.268,-9.479c-0.011,-1.055 -0.177,-1.091 -2.421,-0.524c-1.153,0.291 -2.336,0.524 -2.656,0.524c-0.869,0 -1.064,0.206 -1.132,1.195l-0.062,0.905l-1.205,0.371c-1.174,0.361 -1.214,0.361 -1.596,-0.02c-0.281,-0.282 -0.391,-0.68 -0.391,-1.421c0,-0.989 -0.022,-1.029 -0.566,-1.019c-0.31,0.005 -0.957,0.084 -1.431,0.175c-0.758,0.144 -1.04,0.077 -2.275,-0.536l-1.411,-0.7l-1.832,0.321c-2.862,0.502 -3.578,0.442 -5.045,-0.424c-1.235,-0.729 -1.255,-0.755 -1.194,-1.575c0.046,-0.618 0.198,-0.935 0.587,-1.225c0.515,-0.384 0.546,-0.383 1.657,0.041c0.886,0.338 1.254,0.388 1.689,0.227c0.494,-0.183 0.529,-0.263 0.319,-0.721c-0.133,-0.288 -0.314,-0.469 -0.412,-0.412c-0.095,0.056 -0.782,-0.33 -1.503,-0.844c-1.194,-0.852 -1.303,-0.988 -1.081,-1.349c0.132,-0.214 0.463,-0.401 0.71,-0.401c0.364,0 0.464,-0.113 0.464,-0.525c0,-0.42 0.185,-0.603 0.926,-0.916l0.927,-0.392l0,-1.153c0,-0.823 -0.088,-1.186 -0.309,-1.271c-0.496,-0.189 -0.391,-1.284 0.144,-1.513c0.709,-0.303 7.289,-1.603 10.975,-2.167c1.821,-0.279 4.776,-0.615 6.609,-0.752l3.315,-0.247l0.432,-0.659c0.236,-0.359 0.947,-1.019 1.565,-1.452c0.762,-0.533 1.175,-0.981 1.263,-1.369c0.167,-0.739 0.62,-0.721 1.013,0.041c0.181,0.35 0.492,0.712 0.72,0.834c0.214,0.116 0.435,0.433 0.474,0.68c0.059,0.38 0.152,0.278 0.519,-0.567c0.806,-1.853 1.173,-2.429 1.941,-3.044c0.954,-0.766 1.538,-0.641 1.727,0.368c0.184,0.979 0.723,0.926 1.682,-0.165c2.281,-2.594 3.634,-3.854 4.148,-3.862c0.288,-0.005 0.725,-0.092 0.947,-0.189c0.782,-0.342 1.707,-0.242 1.849,0.201Zm-20.463,1.75c0.474,-0.246 0.595,-0.243 0.815,0.02c0.52,0.622 -1.226,1.856 -2.297,1.623c-0.865,-0.188 -1.364,-0.979 -1.024,-1.623l0.262,-0.494l0.844,0.381c0.741,0.335 0.912,0.346 1.4,0.093Zm2.034,3.088c0.316,0.378 0.128,0.948 -0.51,1.551l-0.494,0.467l-0.217,-0.556c-0.29,-0.741 -0.287,-0.777 0.098,-1.318c0.367,-0.514 0.77,-0.566 1.123,-0.144Zm52.52,3.501c-0.016,0.311 -0.471,0.247 -0.58,-0.083c-0.054,-0.162 0.044,-0.239 0.25,-0.195c0.185,0.039 0.335,0.165 0.33,0.278Zm79.333,4.138c0.258,0.1 0.165,0.35 -0.494,1.318c-0.449,0.659 -0.938,1.296 -1.092,1.421c-0.154,0.126 -0.442,0.587 -0.648,1.04c-0.207,0.452 -0.448,0.767 -0.546,0.71c-0.094,-0.056 -0.127,0.02 -0.072,0.165c0.056,0.146 -0.705,1.379 -1.678,2.717l-1.781,2.451l-0.566,-0.7c-0.317,-0.392 -0.522,-0.773 -0.467,-0.865c0.16,-0.264 1.045,-0.185 1.167,0.103c0.075,0.178 0.257,0.103 0.545,-0.227c0.56,-0.642 0.536,-0.931 -0.123,-1.442l-0.556,-0.431l0.937,0c0.926,0 0.94,-0.01 1.235,-0.875c0.218,-0.639 0.421,-0.895 0.752,-0.948c0.35,-0.055 0.425,-0.161 0.329,-0.463c-0.089,-0.282 0.021,-0.457 0.391,-0.628c0.289,-0.132 0.571,-0.382 0.641,-0.566c0.189,-0.494 1.537,-2.903 1.624,-2.903c0.048,0 0.217,0.052 0.402,0.123Zm-159.48,2.8c0.53,0.531 0.279,1.709 -0.677,3.171c-0.512,0.783 -0.929,1.574 -0.929,1.761c0,0.219 -0.216,0.369 -0.607,0.422c-0.553,0.075 -0.682,-0.031 -1.442,-1.184c-0.461,-0.7 -0.834,-1.45 -0.834,-1.678c0,-0.697 0.824,-1.515 2.142,-2.126c1.379,-0.64 1.979,-0.733 2.347,-0.366Zm145.191,4.118c-0.005,0.433 -0.35,0.842 -0.587,0.696c-0.155,-0.096 -0.162,-0.263 -0.021,-0.531c0.238,-0.453 0.611,-0.554 0.608,-0.165Zm13.805,2.44c-0.228,0.577 -0.412,1.081 -0.412,1.133c0,0.049 -0.144,0.093 -0.309,0.093c-0.2,0 -0.355,0.288 -0.442,0.823c-0.074,0.453 -0.157,0.824 -0.186,0.824c-0.029,0 -0.195,-0.054 -0.381,-0.124c-0.298,-0.112 -0.298,-0.185 0.004,-0.782c0.531,-1.05 1.828,-3.006 1.994,-3.006c0.08,0 -0.04,0.463 -0.268,1.039Zm-20.59,0.773c0,0.09 -0.268,0.421 -0.597,0.737c-0.734,0.704 -1.105,0.333 -0.409,-0.408c0.445,-0.474 1.006,-0.657 1.006,-0.329Zm-1.694,2.45c-0.098,0.514 -0.571,0.583 -0.571,0.082c0,-0.247 0.137,-0.432 0.319,-0.432c0.188,0 0.292,0.144 0.252,0.35Zm20.019,-0.268c0,0.268 -0.506,1.153 -0.659,1.153c-0.195,0 -0.217,-0.453 -0.044,-0.906c0.111,-0.288 0.703,-0.496 0.703,-0.247Zm0.175,2.162c0.055,0.159 -0.02,0.234 -0.185,0.185c-0.144,-0.042 -0.318,-0.216 -0.361,-0.36c-0.048,-0.165 0.027,-0.24 0.186,-0.185c0.144,0.05 0.31,0.216 0.36,0.36Zm-123.509,53.246c0,0.515 -0.288,0.672 -0.528,0.288c-0.175,-0.281 0.034,-0.803 0.322,-0.803c0.115,0 0.206,0.226 0.206,0.515Zm-21.218,3.14c-0.255,1.05 -0.574,1.904 -0.71,1.904c-0.433,0 -1.04,-0.601 -0.783,-0.774c0.126,-0.085 0.511,-0.976 0.867,-2.005c0.883,-2.554 0.906,-2.595 1.005,-1.75c0.046,0.397 -0.124,1.575 -0.379,2.625Zm21.012,-0.464c0,0.289 -0.09,0.515 -0.206,0.515c-0.115,0 -0.206,-0.226 -0.206,-0.515c0,-0.288 0.091,-0.514 0.206,-0.514c0.116,0 0.206,0.226 0.206,0.514Zm-1.358,2.945c-0.012,0.138 -0.035,0.473 -0.052,0.762c-0.019,0.309 -0.155,0.514 -0.34,0.514c-0.34,0 -0.354,-0.082 -0.17,-1.009c0.118,-0.597 0.61,-0.831 0.562,-0.267Zm1.072,1.75c-0.177,1.874 -0.279,2.203 -0.682,2.203c-0.237,0 -0.282,-0.154 -0.195,-0.669c0.063,-0.372 0.172,-1.194 0.247,-1.853c0.098,-0.865 0.22,-1.184 0.453,-1.184c0.266,0 0.296,0.247 0.177,1.503Zm-1.238,0.607c-0.065,0.247 -0.124,0.541 -0.126,0.628c-0.005,0.287 -0.615,0.145 -0.615,-0.144c0,-0.535 0.242,-0.947 0.556,-0.947c0.22,0 0.273,0.134 0.185,0.463Zm-2.8,6.538c0,0.226 -0.139,0.412 -0.309,0.412c-0.17,0 -0.309,-0.186 -0.309,-0.412c0,-0.227 0.139,-0.412 0.309,-0.412c0.17,0 0.309,0.185 0.309,0.412Zm-0.412,2.059c0,0.35 -0.089,0.617 -0.206,0.617c-0.116,0 -0.205,-0.267 -0.205,-0.617c0,-0.35 0.089,-0.618 0.205,-0.618c0.117,0 0.206,0.268 0.206,0.618Zm-7,11.839c0,0.865 -0.073,1.132 -0.309,1.132c-0.236,0 -0.309,-0.267 -0.309,-1.132c0,-0.865 0.073,-1.132 0.309,-1.132c0.236,0 0.309,0.267 0.309,1.132Z" style="fill:#697f8a;fill-rule:nonzero;"/><path d="M339.85,173.701c0.013,0.247 0.058,0.292 0.123,0.123c0.056,-0.144 0.046,-0.325 -0.02,-0.391c-0.065,-0.065 -0.114,0.062 -0.103,0.268Z" style="fill:#697f8a;fill-rule:nonzero;"/><path d="M407.57,176.161c0,0.227 0.11,0.299 0.33,0.216c0.184,-0.069 0.7,-0.123 1.173,-0.123c1.132,0 0.844,-0.213 -0.453,-0.334c-0.885,-0.083 -1.05,-0.045 -1.05,0.241Z" style="fill:#697f8a;fill-rule:nonzero;"/><path d="M338.388,176.768c-0.201,0.251 -0.186,0.309 0.082,0.309c0.185,0 0.329,-0.135 0.329,-0.309c0,-0.164 -0.038,-0.308 -0.082,-0.308c-0.044,0 -0.198,0.144 -0.329,0.308Z" style="fill:#697f8a;fill-rule:nonzero;"/><path d="M386.054,176.997c0.453,0.341 0.954,0.312 1.082,-0.064c0.062,-0.181 -0.166,-0.264 -0.702,-0.257c-0.741,0.009 -0.766,0.03 -0.38,0.321Z" style="fill:#697f8a;fill-rule:nonzero;"/><path d="M385.086,177.118c0.185,0.186 0.309,0.186 0.494,0c0.196,-0.195 0.144,-0.247 -0.247,-0.247c-0.391,0 -0.443,0.052 -0.247,0.247Z" style="fill:#697f8a;fill-rule:nonzero;"/><path d="M408.033,177.839c0.309,0.045 0.824,0.045 1.133,0c0.309,-0.045 0.051,-0.082 -0.566,-0.082c-0.618,0 -0.875,0.037 -0.567,0.082Z" style="fill:#697f8a;fill-rule:nonzero;"/><path d="M391.098,184.387c0.265,0.288 0.505,0.515 0.546,0.515c0.04,0 0.072,-0.227 0.072,-0.515c0,-0.428 -0.093,-0.515 -0.546,-0.515l-0.545,0l0.473,0.515Z" style="fill:#697f8a;fill-rule:nonzero;"/><path d="M453.208,184.006c-0.077,0.076 -0.134,0.226 -0.134,0.35c0,0.126 0.103,0.113 0.247,-0.031c0.144,-0.144 0.2,-0.29 0.134,-0.35c-0.068,-0.062 -0.167,-0.049 -0.247,0.031Z" style="fill:#697f8a;fill-rule:nonzero;"/><path d="M382.357,184.263c-0.177,0.287 0.299,0.385 2.626,0.543c2.368,0.16 3.232,0.048 3.232,-0.419c0,-0.259 -0.463,-0.309 -2.872,-0.309c-1.585,0 -2.923,0.083 -2.986,0.185Z" style="fill:#697f8a;fill-rule:nonzero;"/><path d="M452.796,184.624c-0.076,0.076 -0.134,0.226 -0.134,0.35c0,0.126 0.103,0.113 0.247,-0.031c0.144,-0.144 0.2,-0.29 0.134,-0.35c-0.068,-0.062 -0.167,-0.05 -0.247,0.031Z" style="fill:#697f8a;fill-rule:nonzero;"/><path d="M390.789,185.725c-0.069,0.232 -0.065,0.7 0.011,1.071l0.133,0.659l0.276,-0.494c0.379,-0.68 0.374,-1.648 -0.008,-1.648c-0.158,0 -0.344,0.186 -0.412,0.412Z" style="fill:#697f8a;fill-rule:nonzero;"/><path d="M449.708,189.431c-1.44,2.162 -2.522,3.912 -2.42,3.912c0.102,0 0.587,-0.617 1.081,-1.379c0.487,-0.751 1.388,-2.018 1.976,-2.78c1.048,-1.359 2.225,-3.418 2.05,-3.586c-0.046,-0.043 -1.248,1.671 -2.687,3.833Z" style="fill:#697f8a;fill-rule:nonzero;"/><path d="M458.291,186.61c-0.741,0.845 -2.746,4.183 -2.746,4.571c0,0.102 0.37,-0.176 0.823,-0.617c0.453,-0.442 0.824,-0.882 0.824,-0.978c0,-0.096 0.483,-0.968 1.06,-1.915c0.578,-0.947 1.009,-1.792 0.948,-1.853c-0.062,-0.062 -0.475,0.298 -0.909,0.792Z" style="fill:#697f8a;fill-rule:nonzero;"/><path d="M374.472,187.311c0.309,0.044 0.823,0.044 1.132,0c0.309,-0.045 0.052,-0.083 -0.566,-0.083c-0.618,0 -0.875,0.038 -0.566,0.083Z" style="fill:#697f8a;fill-rule:nonzero;"/><path d="M370.261,187.722c0.144,0.056 0.325,0.046 0.391,-0.02c0.065,-0.065 -0.062,-0.114 -0.267,-0.103c-0.248,0.013 -0.293,0.058 -0.124,0.123Z" style="fill:#697f8a;fill-rule:nonzero;"/><path d="M373.236,189.164c0.309,0.045 0.824,0.045 1.133,0c0.309,-0.045 0.051,-0.083 -0.567,-0.083c-0.617,0 -0.875,0.038 -0.566,0.083Z" style="fill:#697f8a;fill-rule:nonzero;"/><path d="M390.738,192.417c0.005,0.453 0.047,0.615 0.092,0.36c0.044,-0.247 0.04,-0.631 -0.01,-0.823c-0.051,-0.199 -0.088,0.01 -0.082,0.463Z" style="fill:#697f8a;fill-rule:nonzero;"/><path d="M453.984,196.864c-0.217,0.35 0.039,0.417 0.316,0.083c0.154,-0.186 0.17,-0.309 0.04,-0.309c-0.118,0 -0.28,0.103 -0.356,0.226Z" style="fill:#697f8a;fill-rule:nonzero;"/><path d="M453.518,198.203c-0.25,1.173 -0.173,1.349 0.351,0.803c0.435,-0.453 0.808,-1.471 0.461,-1.259c-0.112,0.069 -0.295,-0.028 -0.402,-0.214c-0.155,-0.27 -0.239,-0.133 -0.41,0.67Z" style="fill:#697f8a;fill-rule:nonzero;"/><path d="M456.017,201.826c-0.604,0.783 -0.482,1.009 0.248,0.46c0.268,-0.202 0.323,-0.363 0.175,-0.511c-0.149,-0.15 -0.279,-0.134 -0.423,0.051Z" style="fill:#697f8a;fill-rule:nonzero;"/><path d="M441.63,210.248c-0.217,0.35 0.039,0.416 0.316,0.082c0.154,-0.185 0.17,-0.309 0.04,-0.309c-0.118,0 -0.28,0.103 -0.356,0.227Z" style="fill:#697f8a;fill-rule:nonzero;"/><path d="M420.171,218.154c0,0.35 0.045,0.462 0.103,0.258c0.059,-0.206 0.059,-0.471 0,-0.618c-0.058,-0.146 -0.103,0.01 -0.103,0.36Z" style="fill:#697f8a;fill-rule:nonzero;"/><path d="M342.732,220.234c0.013,0.247 0.059,0.293 0.124,0.123c0.055,-0.144 0.046,-0.324 -0.021,-0.391c-0.065,-0.065 -0.114,0.062 -0.103,0.268Z" style="fill:#697f8a;fill-rule:nonzero;"/><path d="M342.311,222.149c-0.242,0.454 -0.73,3.521 -0.936,5.889c-0.115,1.317 -0.101,1.397 0.163,0.926c0.159,-0.283 0.348,-1.256 0.422,-2.162c0.074,-0.906 0.264,-2.388 0.423,-3.294c0.307,-1.75 0.292,-2.04 -0.072,-1.359Z" style="fill:#697f8a;fill-rule:nonzero;"/><path d="M420.428,222.458c-0.316,0.479 -0.286,0.875 0.443,5.775c0.432,2.903 0.847,5.192 0.927,5.106c0.079,-0.085 0.425,-0.638 0.772,-1.235c0.586,-1.009 0.6,-1.081 0.216,-1.081c-0.226,0 -0.451,-0.111 -0.5,-0.247c-0.08,-0.226 -1.127,-8.277 -1.127,-8.668c0,-0.325 -0.42,-0.124 -0.731,0.35Z" style="fill:#697f8a;fill-rule:nonzero;"/><path d="M447.926,228.151c0,0.123 0.089,0.163 0.206,0.092c0.124,-0.074 0.206,-0.16 0.206,-0.216c0,-0.055 -0.082,-0.092 -0.206,-0.092c-0.117,0 -0.206,0.092 -0.206,0.216Z" style="fill:#697f8a;fill-rule:nonzero;"/><path d="M341.106,230.817c0,0.288 0.045,0.402 0.103,0.258c0.057,-0.145 0.057,-0.371 0,-0.515c-0.058,-0.144 -0.103,-0.031 -0.103,0.257Z" style="fill:#697f8a;fill-rule:nonzero;"/><path d="M332.025,244.324c0.013,0.247 0.059,0.293 0.124,0.124c0.055,-0.144 0.046,-0.325 -0.021,-0.391c-0.065,-0.065 -0.113,0.061 -0.103,0.267Z" style="fill:#697f8a;fill-rule:nonzero;"/></g></g><g><path d="M185.893,21.087c-1.75,1.985 -4.092,7.763 -6.893,17.008c-0.567,1.874 -1.075,3.559 -1.132,3.757c-0.066,0.231 0.844,-0.258 2.533,-1.361c3.994,-2.61 8.029,-4.875 10.15,-5.699c0.394,-0.153 1.421,-0.901 2.265,-1.649c0.845,-0.749 1.983,-1.649 2.512,-1.987l0.968,-0.618l-0.414,-0.844c-0.648,-1.318 -0.836,-1.393 -1.913,-0.766c-0.638,0.372 -1.154,0.52 -1.657,0.478l-0.731,-0.062l-0.091,-2.059c-0.096,-2.162 -0.439,-3.759 -1.179,-5.497c-0.36,-0.845 -0.513,-1.01 -0.851,-0.917c-0.23,0.064 -0.638,-0.064 -0.926,-0.29c-0.877,-0.687 -1.733,-0.523 -2.641,0.506Zm1.035,8.514c-0.081,0.433 -0.244,1.103 -0.371,1.524c-0.199,0.659 -0.281,0.73 -0.669,0.577c-0.435,-0.172 -0.437,-0.196 -0.114,-1.411c0.296,-1.112 0.473,-1.336 1.133,-1.437c0.092,-0.014 0.101,0.315 0.021,0.747Z" style="fill:#ebebeb;fill-rule:nonzero;"/><path d="M203.111,29.858c-0.741,0.095 -1.914,0.536 -3.397,1.277c-1.256,0.628 -2.609,1.243 -3.037,1.38c-0.674,0.216 -1.017,0.618 -2.704,3.171c-7.249,10.974 -14.413,25.531 -22.08,44.865l-2.343,5.91l0,4.694l-5.727,9.554c-7.516,12.539 -12.341,20.261 -17.603,28.167c-4.494,6.754 -4.321,6.564 -4.982,5.477c-0.214,-0.351 -0.567,0.412 -6.533,14.104c-2.207,5.065 -6.044,14.387 -6.415,15.587c-0.121,0.391 -0.064,0.474 0.327,0.479c1.054,0.013 1.105,0.283 0.318,1.683c-0.402,0.713 -1.355,2.224 -2.12,3.356c-0.764,1.132 -1.735,2.569 -2.158,3.191c-1.313,1.936 -1.74,3.945 -1.229,5.786c0.187,0.674 0.114,0.927 -0.803,2.78c-0.558,1.128 -1.528,3.418 -2.172,5.127c-0.644,1.709 -1.633,4.33 -2.215,5.868c-1.66,4.386 -3.654,8.178 -5.391,10.254c-0.865,1.033 -1.103,2.018 -0.763,3.15c0.291,0.967 0.164,1.243 -1.113,2.421c-2.29,2.113 -10.12,13.577 -16.221,23.749c-1.198,1.997 -2.331,3.928 -2.505,4.272l-0.32,0.628l-7.155,-0.134c-4.756,-0.089 -7.948,-0.054 -9.523,0.104c-4.2,0.421 -8.236,0.915 -8.153,0.998c0.158,0.158 6.486,0.868 11.551,1.295c2.841,0.24 5.655,0.49 6.28,0.558l1.132,0.124l-2.882,0.576c-1.586,0.317 -4.05,0.758 -5.477,0.979c-2.778,0.43 -3.521,0.398 -10.687,-0.467c-1.297,-0.156 -2.442,-0.215 -2.532,-0.131c-0.092,0.086 0.247,0.493 0.762,0.916c1.153,0.948 1.301,1.314 0.638,1.571c-0.288,0.112 -0.515,0.309 -0.515,0.447c0,0.364 1.359,1.542 2.059,1.785c0.953,0.33 1.033,-0.199 0.206,-1.352l-0.679,-0.948l1.153,0.145c0.639,0.079 2.131,0.401 3.346,0.72l2.192,0.577l3.192,-0.525l3.191,-0.525l0.927,0.494c1.107,0.591 2.858,2.471 3.663,3.932l0.578,1.051l-0.576,1.194c-0.577,1.194 -0.577,1.194 -1.627,1.312c-2.601,0.291 -8.112,0.57 -16.451,0.833c-5.353,0.168 -9.123,0.368 -9.245,0.49c-0.319,0.319 0.577,0.81 2.1,1.153c1.838,0.412 4.324,0.676 10.789,1.145c3.027,0.219 5.565,0.446 5.621,0.503c0.057,0.056 -0.628,0.331 -1.513,0.607l-1.616,0.504l0.926,0.237c0.515,0.132 1.334,0.37 1.843,0.536c0.696,0.226 1.452,0.266 3.14,0.164c1.215,-0.073 2.224,-0.068 2.224,0.011c0,0.081 -0.135,0.463 -0.309,0.875l-0.309,0.731l-4.89,-0.083c-4.18,-0.07 -5.168,-0.151 -6.805,-0.556l-1.915,-0.473l-3.644,0.526c-4.832,0.698 -6.239,0.846 -14.969,1.575c-10.645,0.887 -15.745,1.569 -20.981,2.805l-2.245,0.529l0.113,1.576c0.063,0.864 0.258,1.928 0.433,2.357l0.319,0.783l1.606,-0.132c2.736,-0.224 9.821,-0.896 14.99,-1.422c8.05,-0.82 10.647,-0.977 15.957,-0.968c4.221,0.008 5.599,0.092 8.442,0.514l3.397,0.505l-5.992,0.019c-9.1,0.029 -17.073,0.5 -24.996,1.477c-3.953,0.488 -11.978,1.812 -12.189,2.012c-0.078,0.073 0.165,0.507 0.525,0.939l0.669,0.803l3.294,-0.355c6.589,-0.711 12.779,-0.651 16.246,0.156l1.029,0.24l-0.926,0.144c-0.512,0.08 -2.491,0.149 -4.427,0.155c-1.935,0.005 -3.993,0.07 -4.602,0.144c-0.968,0.117 -1.088,0.182 -0.988,0.535c0.109,0.386 0.01,0.396 -2.543,0.258c-1.462,-0.08 -3.369,-0.08 -4.242,0l-1.585,0.144l1.627,1.637c0.9,0.906 1.902,1.785 2.244,1.968c0.822,0.442 4.942,0.653 8.442,0.434c1.469,-0.093 5.755,-0.447 9.502,-0.786c3.748,-0.339 9.04,-0.72 11.736,-0.844c2.698,-0.125 6.067,-0.398 7.475,-0.608c1.4,-0.208 2.6,-0.343 2.645,-0.298c0.046,0.045 -0.226,0.834 -0.607,1.76c-0.55,1.339 -0.815,1.735 -1.307,1.956c-0.577,0.26 -0.586,0.279 -0.134,0.289c0.309,0.006 0.443,0.107 0.371,0.277c-6.313,15 -13.709,36.651 -18.97,55.532c-3.155,11.324 -6.819,26.871 -7.109,30.164c-0.091,1.03 -0.275,2.485 -0.415,3.274c-0.394,2.233 -0.153,4.303 0.939,8.051c0.936,3.212 0.956,3.345 0.826,5.353c-0.074,1.132 -0.267,2.939 -0.43,4.015c-0.471,3.108 -0.393,4.056 0.73,8.874c0.567,2.43 1.028,4.55 1.028,4.726c0,0.176 0.635,1.39 1.417,2.707c1.821,3.068 3.517,6.282 4.25,8.051c0.549,1.325 0.633,1.416 2.136,2.296c0.865,0.506 2.026,1.119 2.595,1.369c0.576,0.254 1.061,0.48 1.101,0.515c0.04,0.034 -0.361,0.741 -0.886,1.565c-1.208,1.894 -2.241,5.189 -1.595,5.089c0.474,-0.073 0.756,0.182 1.91,1.726c0.692,0.926 1.335,1.818 1.426,1.977c0.137,0.24 0.247,0.211 0.659,-0.175c0.559,-0.522 1.112,-0.693 1.935,-0.596c0.576,0.068 0.603,0.122 0.772,1.543l0.175,1.472l-1.05,1.729c-1.488,2.451 -2.146,4.562 -1.745,5.601c0.066,0.171 0.613,0.693 1.23,1.173c1.03,0.801 1.177,0.854 1.987,0.721c0.485,-0.08 1.555,-0.469 2.399,-0.873c2.465,-1.179 4.34,-3.327 8.063,-9.237c2.01,-3.191 3.236,-4.732 4.394,-5.521c1.058,-0.722 1.338,-0.694 5.765,0.571c1.792,0.512 3.307,0.903 3.346,0.863c0.04,-0.039 -0.03,-0.617 -0.154,-1.276c-0.205,-1.092 -0.191,-1.231 0.154,-1.483c0.21,-0.153 2.502,-1.546 5.096,-3.099c4.303,-2.574 4.81,-2.937 5.798,-4.159c2.632,-3.253 5.791,-8.579 6.507,-10.974l0.234,-0.783l1.154,0.165c0.63,0.09 1.801,0.165 2.584,0.165l1.431,0l0.051,-0.803c0.029,-0.453 0.284,-1.153 0.585,-1.606c0.638,-0.962 2.926,-2.5 5.005,-3.367c0.11,-0.046 4.892,-13.641 6.803,-19.344c4.366,-13.022 7.159,-22.422 10.953,-36.856c3.75,-14.269 5.51,-20.804 8.651,-32.12c2.4,-8.648 7.346,-25.855 7.464,-25.967c0.022,-0.021 1.338,0.04 2.924,0.137c5.682,0.347 19.442,0.161 17.707,-0.239c-0.339,-0.078 -2.43,-0.611 -4.633,-1.18c-4.18,-1.079 -7.581,-1.68 -9.512,-1.68c-0.619,0 -2.142,0.14 -3.357,0.308c-1.214,0.169 -2.265,0.267 -2.316,0.217c-0.051,-0.052 0.017,-0.422 0.154,-0.834l0.248,-0.741l6.928,0.144c3.809,0.079 6.88,0.088 6.821,0.02c-0.155,-0.176 -4.669,-1.317 -6.728,-1.701c-0.996,-0.185 -2.842,-0.397 -4.098,-0.471l-2.285,-0.134l0.185,-0.494l0.185,-0.494l6.219,0.144c11.18,0.26 16.805,0.98 21.784,2.791c2.821,1.026 2.875,1.133 0.803,1.575l-1.73,0.37l1.318,0.376c1.544,0.441 3.747,1.22 3.665,1.296c-0.034,0.032 -2.955,0.178 -6.496,0.325c-3.542,0.147 -6.36,0.332 -6.27,0.412c0.37,0.324 3.851,0.847 6.321,0.95c2.76,0.115 4.764,-0.086 6.98,-0.701c1.133,-0.315 1.17,-0.345 0.721,-0.587c-0.566,-0.306 -0.721,-0.289 8.154,-0.923c16.863,-1.206 32.877,-3.234 48.16,-6.098c3.768,-0.706 4.026,-0.727 7.021,-0.579c2.203,0.11 3.541,0.077 4.592,-0.113c0.823,-0.149 1.537,-0.213 1.606,-0.144c0.067,0.068 -0.035,6.692 -0.227,14.701l-0.35,14.578l-0.638,1.524l-0.639,1.523l0.388,0.947c0.556,1.359 0.464,2.656 -0.394,5.58l-0.755,2.574l0.139,7.824c0.15,8.421 -0.111,17.149 -0.649,21.661c-0.271,2.27 -0.277,3.191 -0.049,6.65c0.425,6.445 0.219,9.234 -0.866,11.696c-0.226,0.514 -0.408,0.958 -0.408,0.998c0,0.039 0.33,0.072 0.721,0.072c0.391,0 0.716,0.071 0.71,0.155c-0.006,0.085 -0.566,0.525 -1.246,0.978c-0.679,0.453 -1.508,1.106 -1.842,1.451l-0.608,0.628l1.596,1.143c0.885,0.634 1.898,1.318 2.275,1.537c0.796,0.461 0.741,-0.147 0.752,8.315c0.009,7.598 0.115,8.17 1.88,10.172c1.252,1.42 2.497,3.459 2.778,4.55c0.774,3.006 1.494,4.325 2.703,4.951c0.558,0.289 1.173,0.328 4.035,0.258l3.377,-0.082l1.251,1.874c3.051,4.571 4.84,6.402 8.406,8.607c4.138,2.559 4.285,2.676 5.069,4.056c0.819,1.441 2.827,3.676 3.908,4.349c0.628,0.39 0.906,0.431 2.162,0.314c2.252,-0.21 4.586,-1.513 6.842,-3.819l1.209,-1.236l-0.556,-1.173c-0.303,-0.639 -0.655,-1.653 -0.772,-2.224c-0.189,-0.916 -0.158,-1.194 0.247,-2.182c0.367,-0.899 0.491,-1.751 0.597,-4.118c0.119,-2.657 0.197,-3.127 0.71,-4.263c0.494,-1.091 1.664,-2.56 1.838,-2.306c0.031,0.046 0.373,1.606 0.762,3.48c0.864,4.159 0.89,5.469 0.14,6.939l-0.537,1.05l1.205,0.638c0.659,0.349 1.629,0.699 2.141,0.772c0.865,0.124 0.952,0.095 1.133,-0.381c0.256,-0.669 1.06,-5.374 1.06,-6.197c0,-0.622 -0.023,-0.608 -0.896,0.587c-0.497,0.679 -1.079,1.39 -1.307,1.595c-0.408,0.367 -0.415,0.35 -0.659,-1.523c-0.137,-1.05 -0.22,-1.913 -0.185,-1.936c0.034,-0.022 1.029,-0.147 2.223,-0.278c1.195,-0.131 2.761,-0.383 3.501,-0.564c1.297,-0.317 4.681,-1.807 5.415,-2.384c0.411,-0.324 0.536,-0.933 1.367,-6.678c0.764,-5.291 1.189,-9.013 1.444,-12.662l0.195,-2.801l1.266,-2.759l1.266,-2.759l-0.133,-16.369c-0.074,-8.998 -0.213,-18.538 -0.309,-21.187l-0.175,-4.818l0.803,-3.202c0.444,-1.77 0.803,-3.298 0.803,-3.418c0,-0.119 -1.03,-0.417 -2.306,-0.667c-5.539,-1.083 -11.472,-3.724 -16.163,-7.194c-7.548,-5.584 -12.977,-13.563 -15.212,-22.354c-1.292,-5.081 -1.193,0.164 -1.271,-67.597c-0.047,-40.11 0,-62.709 0.134,-64.447c0.777,-10.11 4.865,-18.848 12.086,-25.833c3.313,-3.204 6.404,-5.439 9.987,-7.219l1.77,-0.88l0.338,-2.615c0.73,-5.663 3.108,-13.558 5.27,-17.502c2.315,-4.221 2.527,-4.722 3.118,-7.351c0.565,-2.511 1.128,-6.185 0.972,-6.341c-0.124,-0.124 -2.382,3.335 -3.964,6.074c-0.751,1.299 -2.47,4.571 -3.809,7.247c-1.822,3.645 -2.468,4.766 -2.551,4.427c-0.298,-1.204 -8.598,-43.898 -9.315,-47.913l-0.354,-1.976l-0.978,-0.556c-0.532,-0.302 -1.466,-1.091 -2.048,-1.73l-1.071,-1.173l0.14,-1.565c0.504,-5.601 -2.216,-11.274 -7.552,-15.759c-1.586,-1.332 -4.112,-3.184 -4.345,-3.184c-0.045,0 0.363,0.865 0.904,1.915c1.656,3.212 2.858,7.324 2.907,9.945c0.029,1.518 -0.55,2.841 -2.142,4.9l-1.051,1.359l-1.606,-1.54c-1.771,-1.698 -3.474,-2.784 -4.365,-2.784c-1.499,0 -2.581,1.112 -2.905,2.986c-0.079,0.455 -0.281,1.307 -0.452,1.904l-0.308,1.081l-0.865,-0.463c-0.781,-0.418 -1.174,-0.466 -4.056,-0.489c-3.83,-0.032 -4.83,-0.26 -8.442,-1.925c-4.159,-1.918 -4.102,-1.911 -5.745,-0.716c-0.904,0.657 -1.318,0.647 -2.409,-0.057l-0.885,-0.571l0.484,-0.514c0.268,-0.286 0.937,-1.308 1.503,-2.296l1.019,-1.781l-2.595,-1.238c-3.129,-1.494 -5.597,-2.293 -7.535,-2.441c-1.215,-0.092 -1.665,-0.025 -2.862,0.428c-3.712,1.403 -8.134,4.694 -15.69,11.678c-1.833,1.694 -4.069,3.565 -4.962,4.153c-2.863,1.884 -5.251,3.871 -8.216,6.836c-4.779,4.78 -6.533,7.063 -10.442,13.59c-1.825,3.047 -1.965,3.357 -1.86,4.128l0.113,0.834l-2.955,2.965c-1.621,1.626 -3.73,3.625 -4.674,4.427c-1.606,1.365 -1.723,1.52 -1.784,2.347c-0.061,0.816 -0.734,2.182 -1.725,3.5l-0.372,0.494l-0.576,-0.761l-0.577,-0.762l0.844,-2.924c0.464,-1.606 0.817,-2.952 0.783,-2.986c-0.061,-0.061 -3.725,5.148 -5.836,8.298c-1.697,2.533 -2.9,3.815 -4.727,5.039c-0.844,0.566 -1.623,1.035 -1.719,1.035c-0.096,0 4.232,-7.114 9.615,-15.803c5.384,-8.689 9.929,-16.034 10.098,-16.317c0.442,-0.741 -0.381,0.165 -5.73,6.3c-2.566,2.945 -4.814,5.479 -4.996,5.632c-0.284,0.239 -0.39,0.195 -0.772,-0.319c-0.242,-0.327 -0.988,-1.139 -1.647,-1.792c-0.659,-0.653 -1.2,-1.306 -1.194,-1.441c0.006,-0.135 0.408,-1.071 0.885,-2.059c0.478,-0.988 0.777,-1.77 0.659,-1.719c-0.119,0.051 -1.369,0.84 -2.79,1.76l-2.574,1.668l-0.06,-0.577c-0.094,-0.894 4.909,-12.209 9.141,-20.672c5.919,-11.839 10.87,-19.814 17.064,-27.488c0.6,-0.744 0.643,-0.728 -1.334,-0.474Zm83.39,28.693c0,0.266 0.056,0.906 0.123,1.421l0.124,0.937l-0.721,0.082c-0.712,0.081 -0.722,0.072 -0.844,-0.834c-0.067,-0.494 -0.123,-1.187 -0.123,-1.503c0,-0.537 0.061,-0.587 0.72,-0.587c0.618,0 0.721,0.069 0.721,0.484Zm-53.565,3.047c-0.925,1.38 -2.218,3.084 -2.883,3.799c-0.669,0.721 -1.204,1.38 -1.204,1.483c0,0.101 0.36,0.349 0.793,0.545c0.741,0.337 0.835,0.338 1.451,0.018c0.68,-0.354 0.965,-0.279 1.462,0.384c0.612,0.815 0.583,1.029 -0.283,2.141c-0.769,0.988 -0.908,1.08 -1.467,0.974c-2.739,-0.521 -5.512,-0.218 -7.165,0.782c-1.001,0.605 -11.98,11.525 -13.576,13.501c-2.244,2.78 -5.11,7.614 -5.102,8.607c0.001,0.206 0.172,0.916 0.383,1.596c0.365,1.173 0.367,1.268 0.031,2.265c-0.339,1.008 -0.379,1.043 -1.338,1.176c-1.091,0.152 -1.091,0.152 -1.828,1.449l-0.56,0.988l0.535,0.203c0.866,0.328 2.388,0.234 3.356,-0.208c0.972,-0.444 0.952,-0.345 -0.217,1.076c-0.558,0.679 -0.967,0.988 -1.307,0.988c-0.308,0 -0.494,-0.116 -0.494,-0.309c0,-0.462 -0.865,-0.583 -1.688,-0.237c-0.877,0.369 -1.589,1.493 -2.197,3.47c-0.357,1.159 -0.93,2.038 -3.893,5.971c-5.124,6.803 -7.202,9.78 -15.921,22.814c-7.177,10.727 -10.566,15.967 -12.586,19.457l-0.715,1.236l-0.968,-0.035c-2.145,-0.077 -2.587,-1.036 -1.494,-3.239c1.575,-3.174 8.698,-14.125 18.951,-29.135l5.275,-7.721l-0.579,-0.618c-1.665,-1.777 -1.665,-2.285 0.003,-4.612c9.245,-12.896 18.962,-24.214 31.872,-37.124c6.074,-6.074 14.611,-14.186 14.928,-14.186c0.057,0 -0.65,1.122 -1.575,2.501Zm-13.892,26.078c-0.296,2.285 -1.747,4.924 -3.929,7.144c-2.145,2.183 -4.085,3.604 -4.921,3.604c-0.37,0 -0.725,-0.075 -0.78,-0.165c-0.109,-0.178 3.01,-4.324 4.987,-6.63c2.223,-2.595 4.401,-4.942 4.585,-4.942c0.101,0 0.127,0.453 0.058,0.989Zm24.666,27.796c1.355,1.463 2.534,3.644 2.925,5.415c0.161,0.728 0.449,3.624 0.642,6.465c0.316,4.654 0.449,5.612 1.379,9.987c1.008,4.735 1.025,4.871 0.783,6.393c-0.206,1.297 -0.194,1.81 0.072,3.099c1.05,5.077 2.887,20.281 3.729,30.864c0.848,10.645 0.916,20.428 0.181,25.738c-0.458,3.315 -0.457,3.354 0.209,6.382c0.385,1.754 0.605,3.46 0.689,5.354l0.123,2.779l-1.16,2.368c-2.624,5.354 -2.649,9.197 -0.075,11.589c0.689,0.64 0.839,0.93 0.916,1.774l0.093,1.009l-0.783,0.117c-0.765,0.114 -5.477,0.296 -19.54,0.755c-7.865,0.256 -12.753,0.618 -19.251,1.428c-12.56,1.565 -20.169,2.17 -30.473,2.421c-6.996,0.171 -6.424,0.379 1.647,0.601c3.582,0.098 5.36,0.212 4.838,0.311c-4.612,0.874 -8.266,1.271 -11.839,1.285c-4.221,0.016 -6.265,-0.276 -8.915,-1.274l-1.483,-0.558l4.633,-0.113c2.553,-0.063 4.355,-0.137 4.015,-0.165c-5.456,-0.455 -8.269,-0.649 -9.41,-0.649c-0.761,0 -1.4,-0.061 -1.4,-0.134c0,-0.073 0.316,-0.483 0.707,-0.916c0.758,-0.839 1.092,-1.729 1.29,-3.438c0.122,-1.05 0.137,-1.071 0.804,-1.071c0.864,0 1.643,0.352 1.868,0.844c0.131,0.286 3.649,-6.661 15.396,-30.401l15.227,-30.772l0.494,0.466c0.556,0.523 1.276,1.83 1.276,2.314c0,0.165 0.072,0.309 0.155,0.309c0.085,0 1.067,-1.586 2.192,-3.542c5.037,-8.75 10.808,-18.053 14.855,-23.946l2.05,-2.985l1.06,1.184c0.59,0.658 1.129,1.115 1.215,1.029c0.083,-0.083 0.043,-0.525 -0.086,-0.957c-0.402,-1.339 -0.294,-3.097 0.261,-4.242c0.737,-1.524 5.057,-6.465 6.136,-7.019l0.885,-0.455l-1.544,0.105c-1.627,0.111 -3.294,-0.193 -3.294,-0.599c0,-0.376 1.212,-2.45 2.009,-3.439c0.705,-0.873 1.45,-1.328 2.541,-1.553c0.391,-0.081 0.596,-0.279 0.691,-0.671c0.171,-0.698 2.448,-5.353 3.708,-7.577c0.514,-0.906 0.934,-1.841 0.934,-2.079c0,-0.276 0.35,-0.681 0.968,-1.119c1.626,-1.154 3.064,-2.433 3.581,-3.185c0.269,-0.391 0.604,-0.72 0.732,-0.72c0.131,0 0.733,0.535 1.344,1.194Zm-97.159,26.623c1.214,0.911 2.275,1.798 2.337,1.956c0.062,0.159 -2.153,4.571 -4.932,9.821c-13.488,25.491 -15.084,28.73 -18.483,37.515c-5.251,13.569 -10.746,28.592 -12.977,35.477c-0.374,1.153 -0.746,2.03 -0.825,1.946c-0.081,-0.087 -0.185,-0.608 -0.237,-1.184c-0.072,-0.806 0.124,-1.792 0.899,-4.53c1.545,-5.456 2.616,-9.758 3.141,-12.622c0.519,-2.834 1.613,-5.785 7.839,-21.146c7.277,-17.954 20.432,-48.901 20.787,-48.901c0.124,0 1.236,0.757 2.451,1.668Zm-56.067,97.123c0,0.408 -0.494,0.546 -1.688,0.472l-1.297,-0.081l1.338,-0.257c0.741,-0.143 1.407,-0.267 1.493,-0.278c0.092,-0.013 0.154,0.045 0.154,0.144Zm107.83,-0.041c-0.067,0.066 -0.247,0.076 -0.391,0.02c-0.169,-0.065 -0.124,-0.11 0.123,-0.123c0.206,-0.011 0.333,0.038 0.268,0.103Zm-1.441,0.206c-0.067,0.066 -0.247,0.076 -0.392,0.02c-0.169,-0.065 -0.123,-0.11 0.124,-0.123c0.206,-0.011 0.333,0.038 0.268,0.103Zm-29.368,0.679c-0.259,0.476 -0.529,0.586 -1.867,0.762c-1.133,0.148 -1.199,0.086 -0.67,-0.638c0.311,-0.426 0.525,-0.496 1.555,-0.505c1.112,-0.009 1.18,0.017 0.982,0.381Zm47.775,0.929c5.745,0.766 8.627,2.382 8.627,4.836c0,0.35 -0.037,0.639 -0.082,0.639c-0.046,0 -0.556,-0.319 -1.153,-0.721c-1.485,-0.999 -3.789,-1.672 -6.692,-1.954c-3.736,-0.364 -7.412,-0.073 -18.325,1.45c-10.974,1.532 -13.934,1.696 -16.678,0.921c-1.729,-0.488 -2.689,-1.876 -2.426,-3.506c0.1,-0.617 0.192,-0.724 0.552,-0.638c0.238,0.057 1.874,0.214 3.624,0.348c5.579,0.429 12.746,0.019 18.387,-1.05c2.887,-0.547 2.986,-0.554 7.763,-0.587c2.635,-0.018 5.04,0.081 6.403,0.262Zm-133.382,1.285c1.215,0.073 2.149,0.194 2.059,0.267c-0.091,0.075 -0.988,0.285 -2.018,0.474l-1.853,0.34l-1.75,-0.721l-1.75,-0.721l1.544,0.113c0.844,0.062 2.553,0.174 3.768,0.248Zm6.877,-0.073c-0.054,0.164 -0.597,0.258 -1.606,0.278l-1.524,0.031l1.03,-0.268c1.379,-0.36 2.212,-0.376 2.1,-0.041Zm103.527,20.935c2.543,0.456 6.094,0.483 13.198,0.1l7.124,-0.383l2.296,0.453c1.757,0.347 2.996,0.45 5.281,0.441c2.553,-0.01 7.573,0.317 7.763,0.506c0.033,0.034 -0.289,0.313 -0.701,0.608l-0.761,0.545l1.132,-0.157c1.146,-0.16 1.668,-0.162 7.186,-0.038c2.533,0.057 3.395,0.004 4.18,-0.258c0.967,-0.322 0.998,-0.319 1.482,0.165c0.929,0.929 0.906,0.931 8.339,-0.626c0.738,-0.154 2.378,-0.317 3.655,-0.362c2.244,-0.08 2.316,-0.069 2.316,0.34c0,0.226 -0.07,0.527 -0.151,0.648c-0.173,0.259 -4.687,0.749 -10.556,1.144c-2.3,0.155 -7.885,0.252 -14.104,0.246c-9.656,-0.01 -10.473,-0.039 -13.177,-0.474c-2.437,-0.391 -4.077,-0.487 -10.604,-0.621c-8.442,-0.173 -9.662,-0.317 -12.334,-1.453c-0.803,-0.341 -1.651,-0.617 -1.914,-0.623c-0.269,-0.006 -0.742,-0.14 -1.092,-0.309c-0.35,-0.169 -0.439,-0.258 -0.206,-0.206c0.227,0.051 0.968,0.193 1.648,0.314Zm-117.209,4.062c-0.147,0.059 -0.412,0.059 -0.618,0c-0.204,-0.059 -0.092,-0.103 0.258,-0.103c0.35,0 0.506,0.044 0.36,0.103Zm-1.287,3.552c0.968,0.131 1.013,0.155 0.309,0.164c-0.453,0.006 -1.379,-0.059 -2.059,-0.144c-1.132,-0.141 -1.158,-0.155 -0.309,-0.165c0.506,-0.005 1.441,0.06 2.059,0.145Zm-21.722,116.807c-0.046,0.142 -0.189,0.792 -0.319,1.451c-0.217,1.091 -0.274,1.182 -0.67,1.056c-0.615,-0.197 -0.608,-0.15 -0.228,-1.509c0.3,-1.07 0.422,-1.256 0.826,-1.256c0.288,0 0.441,0.101 0.391,0.258Zm1.019,6.743c0.405,1.256 0.731,2.471 0.731,2.728c0,0.326 0.916,1.376 3.099,3.552c1.709,1.703 3.334,3.43 3.624,3.85l0.525,0.762l-1.184,2.687c-0.654,1.482 -1.24,2.687 -1.308,2.687c-0.273,0 -1.215,-1.153 -1.647,-2.018c-0.24,-0.48 -0.574,-1.524 -0.752,-2.347c-0.177,-0.824 -0.352,-1.519 -0.395,-1.565c-0.097,-0.105 -0.385,0.535 -0.667,1.482c-0.104,0.35 -0.268,0.645 -0.379,0.68c-0.107,0.034 -1.105,-2.718 -2.217,-6.115c-2.218,-6.774 -2.166,-6.319 -0.889,-7.866c0.357,-0.432 0.664,-0.782 0.687,-0.782c0.023,0 0.367,1.009 0.772,2.265Zm57.209,0.772c0.147,1.153 0.231,2.11 0.186,2.11c-0.183,0 -1.401,-0.684 -1.73,-0.972c-0.212,-0.186 -0.371,-0.51 -0.371,-0.757c0,-0.535 1.515,-3.181 1.592,-2.78c0.031,0.158 0.177,1.246 0.323,2.399Z" style="fill:#ebebeb;fill-rule:nonzero;"/><path d="M263.996,31.619c-1.112,0.142 -2.064,0.304 -2.121,0.361c-0.232,0.232 0.536,1.538 1.318,2.243c0.456,0.411 1.503,1.063 2.347,1.463c1.38,0.652 13.374,4.674 13.94,4.674c0.148,0 0.196,-0.165 0.119,-0.412c-0.204,-0.659 0.131,-1.895 0.643,-2.366l0.494,-0.455l-1.184,-0.525c-0.649,-0.287 -2.749,-1.233 -4.643,-2.091c-3.604,-1.63 -6.945,-2.877 -8.175,-3.048c-0.397,-0.056 -1.626,0.014 -2.738,0.156Z" style="fill:#ebebeb;fill-rule:nonzero;"/><path d="M239.762,38.198c0,0.438 0.133,0.521 1.184,0.731c0.658,0.131 1.389,0.282 1.647,0.339c0.392,0.088 0.463,0.021 0.463,-0.432c0,-0.391 -0.128,-0.564 -0.474,-0.642c-2.82,-0.635 -2.82,-0.635 -2.82,0.004Z" style="fill:#ebebeb;fill-rule:nonzero;"/><path d="M271.305,40.915c-0.247,0.045 -0.453,0.111 -0.453,0.145c0,0.033 0.324,0.803 0.711,1.688c0.701,1.606 0.719,1.626 1.39,1.555c0.37,-0.04 0.717,-0.105 0.761,-0.144c0.046,-0.04 -0.22,-0.814 -0.59,-1.72c-0.69,-1.688 -0.733,-1.724 -1.819,-1.524Z" style="fill:#ebebeb;fill-rule:nonzero;"/><path d="M352.245,160.407c-0.902,0.364 -1.846,2.113 -2.228,4.131c-0.138,0.728 -0.12,0.753 1.013,1.393c1.585,0.896 2.288,1.019 2.635,0.46c0.149,-0.24 0.731,-0.62 1.308,-0.854c0.865,-0.351 1.114,-0.573 1.482,-1.318c0.245,-0.494 0.498,-1.205 0.567,-1.586c0.123,-0.689 0.123,-0.689 -1.565,-1.565c-1.647,-0.855 -2.365,-1.003 -3.212,-0.661Z" style="fill:#ebebeb;fill-rule:nonzero;"/><path d="M340.961,166.926c-0.803,0.631 -1.414,1.238 -1.379,1.37c0.033,0.128 0.213,0.463 0.391,0.731l0.33,0.494l0.58,-0.7c0.718,-0.865 1.683,-2.591 1.589,-2.842c-0.038,-0.103 -0.708,0.317 -1.511,0.947Z" style="fill:#ebebeb;fill-rule:nonzero;"/><path d="M412.821,166.607c-1.051,0.585 -2.162,1.999 -2.162,2.749c0,0.543 0.782,1.133 1.503,1.133c0.527,0 0.866,-0.196 1.513,-0.876c0.451,-0.473 1.037,-1.168 1.277,-1.513l0.442,-0.638l-0.926,-0.361c-0.515,-0.2 -0.927,-0.442 -0.927,-0.545c0,-0.25 -0.206,-0.235 -0.72,0.051Z" style="fill:#ebebeb;fill-rule:nonzero;"/><path d="M352.698,167.817c-0.233,0.102 -0.649,0.185 -0.958,0.19c-0.41,0.008 -0.965,0.453 -2.234,1.792c-0.937,0.988 -1.883,2.047 -2.126,2.378c-0.498,0.679 -1.374,0.797 -1.374,0.185c0,-0.213 -0.168,-0.597 -0.371,-0.844c-0.358,-0.438 -0.391,-0.442 -1.009,-0.127c-0.926,0.473 -1.578,1.342 -2.118,2.824c-0.563,1.545 -0.826,1.911 -0.826,1.153c0,-0.329 -0.158,-0.622 -0.412,-0.761c-0.233,-0.129 -0.551,-0.495 -0.733,-0.845c-0.397,-0.762 -0.829,-0.771 -0.984,-0.02c-0.08,0.383 -0.476,0.804 -1.279,1.359c-0.638,0.44 -1.339,1.1 -1.554,1.462l-0.391,0.658l-2.306,0.144c-5.93,0.369 -18.48,2.537 -18.947,3.274c-0.274,0.433 -0.192,1.122 0.148,1.246c0.223,0.082 0.309,0.432 0.309,1.256l0,1.143l-0.927,0.453c-0.7,0.342 -0.926,0.569 -0.926,0.926c0,0.35 -0.121,0.474 -0.464,0.474c-0.247,0 -0.578,0.182 -0.71,0.391c-0.219,0.346 -0.103,0.492 1.009,1.266c0.7,0.488 1.37,0.875 1.513,0.875c0.14,0 0.362,0.227 0.484,0.495c0.2,0.435 0.165,0.516 -0.288,0.683c-0.708,0.259 -0.741,0.255 -1.853,-0.214l-0.968,-0.408l-0.597,0.423c-0.49,0.346 -0.597,0.566 -0.597,1.225c0,0.765 0.062,0.837 1.318,1.542c1.509,0.846 2.141,0.898 4.962,0.405l1.832,-0.321l1.411,0.7c1.235,0.613 1.517,0.68 2.275,0.536c0.474,-0.091 1.121,-0.17 1.431,-0.175c0.542,-0.01 0.566,0.03 0.566,0.936c0,1.716 0.433,1.993 2.265,1.449c0.906,-0.269 0.928,-0.295 0.988,-1.181c0.069,-1.009 0.261,-1.215 1.133,-1.215c0.317,0 1.503,-0.236 2.635,-0.525c1.133,-0.289 2.147,-0.469 2.255,-0.401c0.11,0.069 0.197,0.412 0.2,0.782c0.008,1.194 -1.081,9.515 -1.26,9.632c-0.326,0.212 -5.08,27.698 -5.419,31.322c-0.451,4.838 -0.453,4.815 0.395,5.362c0.72,0.464 0.848,0.921 0.226,0.811c-0.281,-0.049 -0.297,0.024 -0.113,0.498c0.176,0.453 0.147,0.63 -0.155,0.957c-0.361,0.391 -0.36,0.409 0.031,0.69c0.227,0.163 0.483,0.288 0.587,0.288c0.207,0 0.05,0.865 -0.422,2.327c-0.239,0.741 -0.262,1.109 -0.093,1.472c0.174,0.371 0.162,0.539 -0.051,0.721c-0.236,0.2 -0.226,0.329 0.062,0.844c0.322,0.577 0.317,0.649 -0.103,1.431c-0.244,0.453 -0.36,0.874 -0.258,0.937c0.312,0.19 0.192,0.998 -0.226,1.534c-0.451,0.576 -0.581,1.779 -0.165,1.523c0.147,-0.09 0.115,0.073 -0.072,0.361c-0.214,0.331 -0.313,0.813 -0.269,1.307c0.088,0.968 -0.451,2.162 -0.977,2.162c-0.313,0 -0.387,0.155 -0.37,0.772c0.011,0.425 -0.307,1.699 -0.707,2.831c-0.858,2.43 -0.936,3.793 -0.347,6.095c0.463,1.812 2.483,7.186 2.701,7.186c0.079,0 0.205,-1.699 0.278,-3.758c0.073,-2.059 0.278,-4.828 0.453,-6.125c0.175,-1.297 0.385,-3.178 0.464,-4.159c0.218,-2.692 0.528,-2.492 0.382,0.247c-0.29,5.456 -0.39,12.139 -0.185,12.395c0.116,0.145 0.28,0.597 0.358,0.988c0.078,0.391 0.183,0.787 0.229,0.865c0.161,0.275 1.291,-0.927 1.375,-1.462c0.047,-0.296 0.089,0.834 0.095,2.522c0.006,1.936 0.093,3.141 0.237,3.284c0.161,0.162 0.232,0.052 0.247,-0.38c0.012,-0.35 0.063,-0.451 0.121,-0.237c0.171,0.631 0.467,0.37 1.171,-1.03l0.705,-1.4l0.216,-6.743c0.119,-3.706 0.29,-6.859 0.381,-7.001c0.091,-0.141 0.183,-0.442 0.206,-0.669c0.022,-0.226 0.099,-0.7 0.17,-1.05c0.154,-0.762 -0.143,-1.056 -0.602,-0.597c-0.299,0.299 -0.329,0.247 -0.32,-0.556c0.006,-0.487 0.275,-2.924 0.597,-5.415l0.587,-4.53l0.041,5.045l0.042,5.044l0.267,-2.677c0.149,-1.482 0.369,-3.09 0.494,-3.603c0.125,-0.51 0.227,-1.379 0.227,-1.935c0,-0.556 0.088,-1.342 0.196,-1.75c0.108,-0.411 0.292,-1.936 0.411,-3.418c0.12,-1.477 0.494,-4.015 0.834,-5.663c0.341,-1.646 0.849,-4.694 1.133,-6.794c0.309,-2.286 0.679,-4.197 0.926,-4.777c0.228,-0.536 0.412,-1.317 0.412,-1.75c0,-0.886 0.36,-1.729 0.803,-1.879c0.216,-0.073 0.25,0.026 0.134,0.396c-0.085,0.271 -0.224,1.38 -0.309,2.45c-0.085,1.073 -0.395,3.212 -0.686,4.736c-1.127,5.889 -2.007,13.396 -1.99,16.966c0.01,1.874 0.01,1.874 0.36,1.256c0.303,-0.535 0.357,-0.563 0.401,-0.206c0.029,0.227 -0.018,1.153 -0.103,2.059c-0.131,1.4 -0.208,1.638 -0.514,1.586c-0.206,-0.036 -0.361,0.066 -0.361,0.237c0,0.163 -0.056,0.586 -0.123,0.936c-0.1,0.515 -0.06,0.639 0.206,0.639c0.237,0 0.338,-0.216 0.36,-0.772c0.02,-0.515 0.055,-0.601 0.103,-0.258c0.039,0.282 -0.007,1.215 -0.103,2.059c-0.105,0.927 -0.187,1.236 -0.206,0.772c-0.021,-0.535 -0.126,-0.772 -0.34,-0.772c-0.236,0 -0.309,0.247 -0.309,1.05c0,0.844 0.061,1.028 0.309,0.937c0.249,-0.091 0.309,0.062 0.309,0.783c0,0.803 -0.043,0.885 -0.412,0.792c-0.335,-0.084 -0.412,0 -0.412,0.453c0,0.412 0.078,0.527 0.299,0.443c0.165,-0.063 0.354,-0.026 0.422,0.082c0.066,0.104 0.36,0.196 0.628,0.196c0.411,0 0.505,-0.103 0.505,-0.556c0,-0.679 0.193,-0.988 0.617,-0.988c0.433,0 0.507,-0.764 0.103,-1.061c-0.276,-0.203 -0.32,-0.432 -0.206,-1.091c0.118,-0.679 0.083,-0.834 -0.185,-0.834c-0.371,0 -0.441,-0.423 -0.124,-0.741c0.126,-0.126 0.303,-0.721 0.397,-1.338c0.991,-6.466 1.772,-10.81 2.143,-11.922c0.398,-1.194 0.51,-1.346 1.043,-1.411l0.597,-0.072l-0.121,1.298c-0.435,4.674 -0.593,7.66 -0.461,8.73c0.094,0.762 0.212,1.099 0.317,0.906c0.2,-0.372 1.043,-5.148 1.74,-9.863c0.927,-6.28 1.946,-12.149 2.697,-15.545c0.402,-1.817 1.044,-5.004 1.432,-7.104c0.939,-5.087 1.325,-6.65 4.547,-18.407c1.518,-5.539 2.722,-10.106 2.677,-10.151c-0.047,-0.047 -0.276,0.237 -0.525,0.648c-0.299,0.495 -0.583,0.715 -0.875,0.68c-0.385,-0.046 -0.558,0.35 -1.575,3.603c-0.631,2.018 -1.171,3.627 -1.205,3.593c-0.267,-0.267 1.742,-7.268 2.387,-8.318c0.355,-0.578 0.516,-0.65 1.69,-0.755c3.48,-0.312 5.421,-0.524 7.598,-0.828c1.297,-0.182 4.591,-0.416 7.288,-0.517c4.757,-0.18 4.934,-0.201 5.282,-0.649c0.301,-0.388 0.525,-0.454 1.369,-0.405c1.977,0.114 2.865,0.026 3.933,-0.393c0.693,-0.271 1.565,-0.427 2.388,-0.427c1.606,0 3.425,-0.336 3.789,-0.7c0.219,-0.219 0.061,-0.313 -0.865,-0.515c-0.803,-0.175 -1.252,-0.184 -1.544,-0.031c-0.252,0.132 -1.956,0.212 -4.386,0.206c-2.224,-0.006 -3.792,-0.083 -3.562,-0.176c0.535,-0.215 11.009,-1.55 11.139,-1.42c0.057,0.057 0.33,2.327 0.605,5.024c0.851,8.339 1.319,12.062 1.733,13.775c0.93,3.85 1.711,6.41 2.072,6.795c0.26,0.276 0.463,0.988 0.618,2.162c0.362,2.758 1.569,9.698 2.704,15.545c1.901,9.801 3.212,14.917 4.401,17.172c0.38,0.721 0.648,1.397 0.592,1.493c-0.057,0.096 0.031,0.175 0.195,0.175c0.183,0 0.351,0.298 0.433,0.772c0.073,0.421 0.218,1.287 0.319,1.905c0.101,0.62 0.515,2.388 0.916,3.912c0.401,1.523 0.817,3.635 0.92,4.674c0.204,2.038 0.598,3.12 1.737,4.777c0.411,0.597 0.751,1.226 0.751,1.389c0,0.166 0.412,0.684 0.926,1.165c1.133,1.059 1.419,2.011 0.7,2.33c-0.445,0.198 -0.442,0.205 0.196,0.469c0.432,0.178 0.649,0.415 0.649,0.71c0,0.249 0.135,0.7 0.308,1.03c0.174,0.329 0.255,0.803 0.186,1.081c-0.119,0.476 -0.083,0.494 1.029,0.494c1.03,0 1.153,-0.046 1.153,-0.432c0,-0.698 0.49,-0.33 0.849,0.638c0.689,1.853 2.893,3.181 4.484,2.702c0.862,-0.259 0.961,-0.334 2.034,-1.549c0.709,-0.803 1.184,-0.836 0.887,-0.062c-0.127,0.33 -0.092,0.596 0.116,0.875c0.225,0.303 0.266,0.711 0.166,1.658c-0.164,1.544 0.218,2.435 1.224,2.857c0.973,0.408 1.505,0.19 1.948,-0.798c0.212,-0.474 0.618,-1.062 0.924,-1.339c0.309,-0.279 0.546,-0.565 0.546,-0.659c0,-0.089 -0.374,-0.597 -0.819,-1.111c-1.174,-1.359 -1.549,-2.857 -0.869,-3.475c0.329,-0.299 0.43,-0.308 0.638,-0.057c0.185,0.224 0.412,0.253 0.906,0.114c0.366,-0.103 0.988,-0.186 1.4,-0.186c0.741,0 1.626,-0.605 1.626,-1.112c0,-0.147 0.304,-0.617 0.68,-1.05l0.679,-0.782l1.287,0.865c0.824,0.553 1.421,0.823 1.658,0.748c0.351,-0.11 1.102,-2.128 1.152,-3.096c0.012,-0.227 0.1,-0.679 0.196,-1.008c0.112,-0.38 0.086,-0.845 -0.07,-1.277c-0.291,-0.805 0.019,-1.622 0.863,-2.274c0.342,-0.264 1.371,-2.482 3.331,-7.177c3.224,-7.721 9.3,-21.974 11.314,-26.54c1.299,-2.945 1.505,-3.579 0.942,-2.904c-0.371,0.445 -0.618,0.371 -0.618,-0.185c0,-0.638 0.744,-1.565 1.256,-1.565c0.227,0 0.37,-0.074 0.319,-0.164c-0.051,-0.091 1.882,-3.737 4.283,-8.082c2.481,-4.489 4.286,-7.975 4.169,-8.051c-0.119,-0.077 -0.041,-0.219 0.186,-0.338c0.379,-0.197 1.384,-2.06 3.156,-5.849c0.54,-1.153 1.176,-2.129 1.785,-2.738c1.026,-1.026 1.009,-1.052 -0.411,-0.624c-1.572,0.475 -1.73,0.129 -0.741,-1.621c0.338,-0.597 0.617,-1.222 0.617,-1.379c0,-0.509 -1.647,1.317 -2.395,2.656c-1.072,1.915 -3.422,5.368 -4.303,6.321c-0.888,0.96 -1.073,1.297 3.068,-5.601c2.559,-4.262 3.213,-5.498 3.115,-5.888c-0.087,-0.35 -0.027,-0.533 0.206,-0.628c0.185,-0.076 0.274,-0.224 0.202,-0.34c-0.152,-0.245 2.269,-4.243 2.66,-4.394c0.247,-0.095 2.594,-3.292 2.594,-3.533c0,-0.055 -0.144,-0.103 -0.308,-0.103c-0.165,0 -0.309,-0.053 -0.309,-0.113c0,-0.063 0.485,-0.772 1.091,-1.596c2.774,-3.768 1.32,-2.183 -3.533,3.85c-2.75,3.418 -3.827,4.619 -3.962,4.417c-0.134,-0.202 -0.185,-0.155 -0.185,0.175c0,0.72 -0.217,1.091 -0.638,1.091c-0.464,0 -0.465,-0.02 -0.069,-0.968c0.336,-0.803 0.276,-1.297 -0.158,-1.297c-0.211,0 -1.265,1.792 -1.975,3.356c-0.046,0.102 0.102,0.125 0.328,0.052c0.268,-0.087 0.542,-0.004 0.782,0.237c0.357,0.357 0.34,0.373 -0.463,0.432c-0.789,0.058 -0.85,0.113 -1.132,1.019c-0.238,0.762 -0.412,0.988 -0.855,1.106c-0.782,0.208 -2.588,1.756 -2.733,2.343c-0.117,0.474 -0.847,1.272 -1.014,1.109c-0.046,-0.044 0.013,-0.532 0.135,-1.109c0.221,-1.05 0.665,-1.753 0.936,-1.482c0.081,0.081 -0.031,0.274 -0.258,0.442c-0.288,0.215 -0.338,0.363 -0.175,0.525c0.165,0.165 0.302,0.041 0.505,-0.453c0.155,-0.379 0.676,-1.153 1.179,-1.75c1.024,-1.215 0.958,-1.447 -0.119,-0.42c-0.4,0.381 1.043,-1.958 3.366,-5.458c3.882,-5.848 4.054,-6.149 3.789,-6.641c-0.25,-0.463 -0.232,-0.576 0.185,-1.132c0.263,-0.35 0.374,-0.618 0.258,-0.618c-0.116,0 -0.366,0.227 -0.569,0.515c-0.87,1.235 -2.032,2.728 -2.644,3.397c-0.362,0.397 -1.019,1.359 -1.461,2.142c-0.443,0.782 -0.947,1.67 -1.122,1.976c-0.174,0.302 -0.824,1.112 -1.421,1.771l-1.102,1.215l0.518,-0.927c1.609,-2.882 2.358,-4.074 3.027,-4.818c0.417,-0.464 1.694,-2.141 2.838,-3.726c1.144,-1.586 2.788,-3.8 3.654,-4.921c1.526,-1.977 1.762,-2.389 1.37,-2.389c-0.4,0 -6.719,7.165 -7.808,8.854c-0.624,0.968 -1.471,2.21 -1.895,2.779c-0.782,1.051 -4.245,7.02 -4.36,7.516c-0.034,0.149 0.134,0.322 0.381,0.391c0.407,0.114 0.336,0.247 -0.886,1.668c-1.526,1.773 -4.019,5.147 -7.073,9.574c-2.4,3.48 -2.43,3.519 -2.581,3.356c-0.052,-0.056 1.746,-3.191 4.003,-6.98c2.797,-4.694 4.398,-7.171 5.044,-7.803c0.762,-0.745 0.986,-1.133 1.143,-1.977c0.108,-0.579 0.482,-1.771 0.834,-2.656c0.352,-0.885 0.611,-1.633 0.576,-1.667c-0.16,-0.158 -2.411,1.708 -2.507,2.079c-0.058,0.223 -0.399,0.741 -0.746,1.132l-0.638,0.721l0.618,-1.256c0.344,-0.7 0.845,-1.525 1.132,-1.864c0.279,-0.329 0.576,-0.857 0.649,-1.153c0.074,-0.301 0.907,-1.678 1.863,-3.078l1.73,-2.532l-0.453,-0.371c-0.453,-0.371 -0.453,-0.371 -1.122,0.721c-0.367,0.597 -1.07,1.822 -1.555,2.707c-0.485,0.886 -1.19,2.054 -1.559,2.584c-4.804,6.898 -5.104,6.939 -0.6,0.083c4.26,-6.486 4.3,-6.553 4.223,-7.104c-0.052,-0.368 -0.772,0.515 -3.227,3.953c-1.735,2.43 -3.714,5.365 -4.386,6.507c-0.837,1.421 -1.675,2.517 -2.646,3.461c-1.444,1.405 -3.002,3.725 -4.049,6.031c-0.299,0.659 -0.995,1.688 -1.551,2.296c-0.547,0.597 -1.16,1.398 -1.339,1.75c-0.179,0.354 -0.61,1.06 -0.947,1.554c-0.547,0.803 -0.578,0.929 -0.267,1.102c0.504,0.283 0.185,0.611 -0.453,0.466c-0.482,-0.11 -0.588,-0.044 -0.793,0.491c-0.197,0.515 -0.18,0.632 0.103,0.7c0.238,0.058 0.154,0.154 -0.278,0.32c-0.492,0.188 -0.863,0.7 -1.822,2.512c-0.665,1.255 -1.154,2.408 -1.092,2.573c0.078,0.205 -0.01,0.299 -0.278,0.299c-0.3,0 -0.852,0.895 -2.378,3.86c-1.091,2.121 -2.349,4.39 -2.79,5.035c-0.436,0.638 -0.801,1.342 -0.8,1.544c0.005,0.535 -2.109,4.762 -2.391,4.782c-0.123,0.008 -0.293,-0.386 -0.371,-0.86c-0.122,-0.741 -0.075,-0.931 0.309,-1.245l0.453,-0.371l-0.484,-0.865c-0.412,-0.737 -0.496,-1.215 -0.566,-3.232c-0.058,-1.668 -0.171,-2.469 -0.381,-2.708c-0.235,-0.268 -0.242,-0.359 -0.031,-0.432c0.22,-0.076 0.22,-0.196 0,-0.67c-0.145,-0.313 -0.31,-1.008 -0.36,-1.523c-0.052,-0.526 -0.193,-1.441 -0.319,-2.059c-0.134,-0.655 -0.171,-1.73 -0.091,-2.615c0.147,-1.624 -0.049,-3.336 -0.809,-7.083c-0.263,-1.299 -0.731,-3.809 -1.036,-5.559c-0.305,-1.751 -0.686,-3.796 -0.844,-4.53c-0.402,-1.866 -1.322,-9.78 -1.413,-12.148c-0.335,-8.772 -0.277,-8.183 -0.981,-9.863c-0.855,-2.038 -1.314,-2.491 -2.527,-2.491c-0.906,0 -0.927,0.014 -0.927,0.628c0,0.346 0.204,1.215 0.453,1.935c0.386,1.112 0.412,1.357 0.179,1.637c-0.408,0.492 -1.455,0.432 -1.455,-0.082c0,-0.542 -0.659,-0.962 -2.286,-1.455c-1.239,-0.377 -1.508,-0.563 -2.645,-1.84l-1.267,-1.42l0.139,-1.318c0.182,-1.73 -0.06,-2.203 -1.127,-2.203c-1.1,0 -2.512,1.256 -3.032,2.697c-0.215,0.597 -0.727,1.43 -1.158,1.884c-0.733,0.772 -0.77,0.875 -0.731,2.028c0.03,0.885 -0.048,1.304 -0.288,1.544c-0.636,0.637 -0.81,0.144 -0.764,-2.162c0.031,-1.585 -0.037,-2.312 -0.25,-2.656c-0.386,-0.626 -1.828,-1.164 -2.672,-0.998c-0.865,0.17 -2.038,1.077 -2.038,1.575c0,0.206 -0.098,0.45 -0.206,0.515c-0.111,0.066 -0.206,0.545 -0.206,1.039c0,0.845 0.07,0.967 0.885,1.554c0.858,0.618 1.784,2.101 2.084,3.336c0.13,0.536 0.105,0.568 -0.344,0.453c-0.309,-0.078 -0.584,-0.004 -0.762,0.206c-0.513,0.608 -0.778,0.35 -0.889,-0.864c-0.06,-0.659 -0.278,-1.545 -0.485,-1.977c-0.73,-1.524 -2.961,-2.077 -4.195,-1.042c-0.827,0.695 -0.783,0.944 0.103,0.575c1.746,-0.729 3.012,-0.027 3.407,1.888c0.131,0.638 0.177,1.383 0.103,1.667c-0.13,0.502 -0.175,0.513 -1.781,0.443c-1.132,-0.049 -1.702,-0.165 -1.822,-0.37c-0.133,-0.227 -0.242,-0.244 -0.453,-0.073c-0.152,0.124 -1.472,0.331 -2.913,0.457c-3.233,0.282 -3.027,0.288 -3.027,-0.086c0,-0.226 -0.247,-0.309 -0.927,-0.309c-0.659,0 -0.926,0.083 -0.926,0.288c0,0.507 -0.659,0.553 -2.842,0.201l-2.141,-0.345l-0.381,0.495l-0.381,0.494l-0.71,-0.381c-0.433,-0.232 -0.819,-0.313 -0.989,-0.206c-0.151,0.095 -0.535,0.175 -0.844,0.175c-0.412,0 -0.566,-0.101 -0.566,-0.371c0,-0.432 0.652,-0.761 0.776,-0.391c0.116,0.349 1.901,0.329 1.901,-0.021c0,-0.231 0.998,-0.318 5.075,-0.442c3.356,-0.102 5.396,-0.252 6.023,-0.443c0.514,-0.157 1.154,-0.288 1.4,-0.288c0.606,0 0.597,-0.147 -0.041,-0.652c-0.536,-0.424 -0.668,-0.974 -0.247,-1.026c0.137,-0.017 -0.392,-0.093 -1.195,-0.171c-1.606,-0.156 -1.881,-0.101 -1.54,0.305c0.174,0.205 0.531,0.253 1.252,0.164c0.7,-0.085 1.009,-0.048 1.009,0.124c0,0.358 -0.535,0.491 -0.988,0.244c-0.309,-0.168 -0.435,-0.159 -0.505,0.034c-0.072,0.202 -0.206,0.197 -0.617,-0.021c-0.459,-0.242 -0.649,-0.223 -1.493,0.155c-0.762,0.34 -1.056,0.384 -1.38,0.208c-0.402,-0.218 -1.709,-0.182 -5.25,0.145c-0.783,0.073 -1.297,0.043 -1.297,-0.075c0,-0.108 0.906,-0.257 2.017,-0.333c4.18,-0.282 4.983,-0.39 4.983,-0.666c0,-0.406 -0.329,-0.441 -3.191,-0.337c-2.78,0.101 -3.217,-0.015 -1.318,-0.352c0.95,-0.168 0.782,-0.184 -1.153,-0.115c-9.039,0.327 -17.167,0.535 -18.716,0.479l-1.833,-0.066l-0.401,-1.184c-0.301,-0.886 -0.641,-1.394 -1.349,-2.018l-0.947,-0.834l-0.772,0.762c-0.713,0.703 -0.777,0.865 -0.834,2.1c-0.034,0.741 -0.163,1.375 -0.288,1.421c-0.126,0.046 -0.401,-0.247 -0.618,-0.659c-0.372,-0.704 -0.433,-0.735 -1.215,-0.618c-0.453,0.068 -0.981,0.17 -1.174,0.226c-0.502,0.146 -0.473,-0.575 0.042,-1.043c0.272,-0.248 0.535,-0.309 0.864,-0.202l0.474,0.154l-0.412,-0.463l-0.412,-0.463l0.886,-0.793c0.484,-0.434 1.379,-1.07 1.976,-1.404c1.75,-0.982 2.786,-2.501 2.195,-3.218c-0.281,-0.341 -1.103,-0.386 -1.762,-0.098Zm-12.725,6.223c-0.058,0.144 -0.103,0.031 -0.103,-0.257c0,-0.288 0.045,-0.402 0.103,-0.257c0.058,0.144 0.058,0.37 0,0.514Zm69.811,2.1c0.061,0.062 -0.268,0.114 -0.721,0.114c-0.453,0 -0.985,0.056 -1.163,0.123c-0.22,0.083 -0.33,0.011 -0.33,-0.216c0,-0.286 0.165,-0.324 1.05,-0.237c0.577,0.057 1.101,0.154 1.164,0.216Zm-70.985,0.628c0,0.174 -0.144,0.309 -0.329,0.309c-0.268,0 -0.283,-0.058 -0.082,-0.309c0.131,-0.164 0.285,-0.308 0.329,-0.308c0.044,0 0.082,0.144 0.082,0.308Zm70.367,1.071c-0.309,0.045 -0.824,0.045 -1.133,0c-0.308,-0.045 -0.051,-0.082 0.567,-0.082c0.617,0 0.875,0.037 0.566,0.082Zm-17.399,6.548c-0.052,0.288 -0.115,0.515 -0.144,0.515c-0.029,0 -0.26,-0.227 -0.525,-0.515l-0.473,-0.515l0.617,0c0.556,0 0.609,0.051 0.525,0.515Zm-3.552,0c0,0.166 -0.247,0.37 -0.535,0.442c-0.556,0.138 -4.642,-0.076 -5.147,-0.27c-0.851,-0.326 0.02,-0.481 2.697,-0.481c2.491,0 2.985,0.051 2.985,0.309Zm3.295,1.42c0,0.281 -0.098,0.773 -0.216,1.081c-0.173,0.453 -0.256,0.505 -0.415,0.258c-0.224,-0.35 -0.257,-1.5 -0.049,-1.709c0.307,-0.307 0.68,-0.103 0.68,0.37Zm-15.906,1.504c-0.309,0.044 -0.823,0.044 -1.132,0c-0.309,-0.045 -0.052,-0.083 0.566,-0.083c0.618,0 0.875,0.038 0.566,0.083Zm-4.89,0.35c0,0.045 -0.185,0.128 -0.412,0.185c-0.226,0.057 -0.36,0.019 -0.298,-0.082c0.114,-0.186 0.71,-0.272 0.71,-0.103Zm3.655,1.503c-0.309,0.045 -0.824,0.045 -1.133,0c-0.309,-0.045 -0.051,-0.083 0.566,-0.083c0.618,0 0.876,0.038 0.567,0.083Zm16.461,3.613c-0.045,0.255 -0.087,0.093 -0.092,-0.36c-0.006,-0.453 0.031,-0.662 0.082,-0.463c0.05,0.192 0.054,0.576 0.01,0.823Zm65.435,9.509c-0.73,0.549 -0.852,0.323 -0.248,-0.46c0.144,-0.185 0.274,-0.201 0.423,-0.051c0.148,0.148 0.093,0.309 -0.175,0.511Zm-14.452,8.229c-0.435,0.585 -0.5,0.577 -0.343,-0.041c0.062,-0.247 0.25,-0.453 0.413,-0.453c0.237,0 0.222,0.103 -0.07,0.494Zm-21.539,7.897c-0.058,0.204 -0.103,0.092 -0.103,-0.258c0,-0.35 0.045,-0.506 0.103,-0.36c0.059,0.147 0.059,0.412 0,0.618Zm-77.418,1.945c-0.065,0.17 -0.111,0.124 -0.124,-0.123c-0.011,-0.206 0.038,-0.333 0.103,-0.268c0.067,0.067 0.076,0.247 0.021,0.391Zm-0.464,3.151c-0.151,0.898 -0.366,2.522 -0.473,3.572c-0.107,1.05 -0.308,2.033 -0.443,2.162c-0.194,0.186 -0.217,-0.072 -0.107,-1.204c0.352,-3.645 0.935,-6.568 1.243,-6.239c0.032,0.034 -0.067,0.803 -0.22,1.709Zm78.889,-0.35c0.879,7.186 0.987,7.767 1.464,7.828c0.445,0.057 0.442,0.078 -0.2,1.273c-0.642,1.194 -0.974,1.531 -0.974,0.988c0,-0.148 -0.332,-2.512 -0.741,-5.271c-0.689,-4.654 -0.718,-5.038 -0.412,-5.498c0.513,-0.768 0.704,-0.617 0.863,0.68Zm27.057,4.869c0,0.056 -0.082,0.142 -0.206,0.216c-0.117,0.071 -0.206,0.031 -0.206,-0.092c0,-0.124 0.089,-0.216 0.206,-0.216c0.124,0 0.206,0.037 0.206,0.092Zm-107.129,3.151c-0.059,0.204 -0.103,0.092 -0.103,-0.258c0,-0.35 0.044,-0.506 0.103,-0.36c0.058,0.147 0.058,0.412 0,0.618Zm-8.988,13.043c-0.106,0.268 -0.202,0.381 -0.21,0.247c-0.018,-0.329 0.217,-0.929 0.323,-0.823c0.045,0.044 -0.007,0.309 -0.113,0.576Z" style="fill:#ebebeb;fill-rule:nonzero;"/><path d="M331.593,169.768c-0.225,0.415 -0.213,0.576 0.071,1.009c0.638,0.97 2.097,0.844 3.101,-0.268c0.316,-0.35 0.341,-0.489 0.133,-0.731c-0.231,-0.268 -0.319,-0.268 -0.855,0c-0.543,0.272 -0.669,0.262 -1.39,-0.103l-0.792,-0.401l-0.268,0.494Z" style="fill:#ebebeb;fill-rule:nonzero;"/><path d="M335.145,172.815c-0.368,0.473 -0.447,0.968 -0.243,1.524l0.212,0.576l0.615,-0.679c0.709,-0.783 0.765,-1.178 0.208,-1.47c-0.514,-0.269 -0.545,-0.268 -0.792,0.049Z" style="fill:#ebebeb;fill-rule:nonzero;"/><path d="M388.01,176.233c0,0.099 0.144,0.238 0.308,0.299c0.186,0.068 0.309,-0.006 0.309,-0.186c0,-0.159 -0.144,-0.298 -0.309,-0.298c-0.164,0 -0.308,0.086 -0.308,0.185Z" style="fill:#ebebeb;fill-rule:nonzero;"/><path d="M463.215,180.351c-0.181,0.288 -0.19,0.454 -0.031,0.551c0.237,0.146 0.583,-0.263 0.588,-0.695c0.004,-0.381 -0.274,-0.309 -0.557,0.144Z" style="fill:#ebebeb;fill-rule:nonzero;"/><path d="M466.774,181.71c-1.058,1.894 -0.806,2.127 0.445,0.412c0.705,-0.968 0.969,-1.493 0.803,-1.599c-0.402,-0.255 -0.49,-0.172 -1.248,1.187Z" style="fill:#ebebeb;fill-rule:nonzero;"/><path d="M306.144,183.668c-1.339,0.616 -2.142,1.427 -2.142,2.16c0,0.246 0.385,0.988 0.843,1.627c1.005,1.4 1.665,1.555 2.107,0.494c0.153,-0.368 0.627,-1.184 1.035,-1.781c0.533,-0.783 0.751,-1.322 0.751,-1.864c0,-1.396 -0.618,-1.547 -2.594,-0.636Z" style="fill:#ebebeb;fill-rule:nonzero;"/><path d="M465.284,183.912c-0.494,0.241 -0.588,0.48 -0.268,0.679c0.396,0.246 0.206,0.49 -0.35,0.451c-0.466,-0.033 -0.574,0.076 -0.834,0.838c-0.288,0.844 -0.328,0.875 -1.132,0.875l-0.834,0l0.443,0.473c0.56,0.597 0.562,1.008 0.01,1.495c-0.33,0.291 -0.476,0.332 -0.538,0.152c-0.093,-0.267 -0.918,-0.361 -1.15,-0.131c-0.168,0.167 0.7,1.304 0.988,1.295c0.285,-0.009 3.062,-3.799 3.839,-5.24c0.633,-1.174 0.614,-1.271 -0.174,-0.887Z" style="fill:#ebebeb;fill-rule:nonzero;"/><path d="M453.218,187.29c-0.197,0.197 -0.165,0.906 0.041,0.906c0.18,0 0.433,-0.494 0.433,-0.844c0,-0.227 -0.274,-0.262 -0.474,-0.062Z" style="fill:#ebebeb;fill-rule:nonzero;"/><path d="M466.499,190.605c-0.788,1.318 -1.006,1.833 -0.824,1.949c0.442,0.282 0.511,0.213 0.65,-0.652c0.079,-0.494 0.244,-0.823 0.41,-0.823c0.152,0 0.47,-0.515 0.701,-1.133c0.23,-0.618 0.356,-1.132 0.277,-1.132c-0.079,0 -0.624,0.803 -1.214,1.791Z" style="fill:#ebebeb;fill-rule:nonzero;"/><path d="M445.891,190.955c-0.696,0.741 -0.325,1.112 0.409,0.408c0.329,-0.316 0.597,-0.647 0.597,-0.737c0,-0.328 -0.561,-0.145 -1.006,0.329Z" style="fill:#ebebeb;fill-rule:nonzero;"/><path d="M444.699,193.035c-0.166,0.432 0.11,0.679 0.345,0.308c0.261,-0.411 0.254,-0.617 -0.021,-0.617c-0.11,0 -0.261,0.144 -0.324,0.309Z" style="fill:#ebebeb;fill-rule:nonzero;"/><path d="M464.496,193.138c-0.207,0.658 0.131,0.955 0.445,0.391c0.354,-0.639 0.353,-0.803 -0.007,-0.803c-0.17,0 -0.367,0.185 -0.438,0.412Z" style="fill:#ebebeb;fill-rule:nonzero;"/><path d="M464.851,194.795c0.043,0.144 0.217,0.318 0.361,0.36c0.165,0.049 0.24,-0.026 0.185,-0.185c-0.05,-0.144 -0.216,-0.31 -0.36,-0.36c-0.159,-0.055 -0.234,0.02 -0.186,0.185Z" style="fill:#ebebeb;fill-rule:nonzero;"/><path d="M336.99,242.451c0.094,0.453 0.45,0.48 0.531,0.041c0.041,-0.227 -0.053,-0.35 -0.266,-0.35c-0.185,0 -0.301,0.135 -0.265,0.309Z" style="fill:#ebebeb;fill-rule:nonzero;"/><path d="M341.348,247.989c-0.063,0.165 -0.059,0.405 0.01,0.515c0.241,0.384 0.53,0.227 0.53,-0.288c0,-0.556 -0.355,-0.705 -0.54,-0.227Z" style="fill:#ebebeb;fill-rule:nonzero;"/><path d="M320.866,248.216c-0.069,0.114 -0.377,0.988 -0.69,1.956c-0.313,0.968 -0.7,1.957 -0.865,2.213c-0.273,0.423 -0.257,0.48 0.175,0.649c0.268,0.105 0.536,0.127 0.618,0.052c0.3,-0.277 1.016,-3.511 0.95,-4.294c-0.036,-0.432 -0.12,-0.69 -0.188,-0.576Z" style="fill:#ebebeb;fill-rule:nonzero;"/><path d="M341.27,250.892c0,0.289 0.091,0.515 0.206,0.515c0.116,0 0.206,-0.226 0.206,-0.515c0,-0.288 -0.09,-0.514 -0.206,-0.514c-0.115,0 -0.206,0.226 -0.206,0.514Z" style="fill:#ebebeb;fill-rule:nonzero;"/><path d="M339.968,253.61c-0.054,0.092 -0.162,0.464 -0.242,0.834c-0.111,0.515 -0.073,0.669 0.165,0.669c0.197,0 0.339,-0.267 0.393,-0.741c0.078,-0.679 -0.105,-1.119 -0.316,-0.762Z" style="fill:#ebebeb;fill-rule:nonzero;"/><path d="M340.766,255.268c-0.075,0.659 -0.184,1.481 -0.247,1.853c-0.087,0.515 -0.042,0.669 0.195,0.669c0.356,0 0.474,-0.412 0.665,-2.327c0.116,-1.153 0.088,-1.379 -0.17,-1.379c-0.221,0 -0.348,0.34 -0.443,1.184Z" style="fill:#ebebeb;fill-rule:nonzero;"/><path d="M339.544,256.04c-0.212,0.556 -0.139,0.927 0.182,0.927c0.17,0 0.309,-0.186 0.309,-0.412c0,-0.227 0.006,-0.477 0.014,-0.556c0.03,-0.302 -0.387,-0.268 -0.505,0.041Z" style="fill:#ebebeb;fill-rule:nonzero;"/><path d="M336.74,262.752c0,0.501 0.473,0.433 0.572,-0.082c0.039,-0.206 -0.065,-0.35 -0.252,-0.35c-0.183,0 -0.32,0.185 -0.32,0.432Z" style="fill:#ebebeb;fill-rule:nonzero;"/><path d="M336.535,264.677c0,0.268 0.096,0.563 0.205,0.628c0.122,0.073 0.206,-0.133 0.206,-0.504c0,-0.35 -0.091,-0.628 -0.206,-0.628c-0.109,0 -0.205,0.237 -0.205,0.504Z" style="fill:#ebebeb;fill-rule:nonzero;"/><path d="M329.328,276.63c0,0.865 0.073,1.132 0.309,1.132c0.236,0 0.309,-0.267 0.309,-1.132c0,-0.865 -0.073,-1.132 -0.309,-1.132c-0.236,0 -0.309,0.267 -0.309,1.132Z" style="fill:#ebebeb;fill-rule:nonzero;"/><path d="M166.852,276.829c1.681,0.56 5.869,1.333 7.969,1.471c2.244,0.147 5.111,-0.058 4.612,-0.33c-0.797,-0.434 -6.877,-1.197 -10.666,-1.338c-2.697,-0.1 -2.781,-0.092 -1.915,0.197Z" style="fill:#ebebeb;fill-rule:nonzero;"/><path d="M21.919,279.616c-0.254,0.17 -0.225,0.205 0.165,0.205c0.268,0 0.421,-0.089 0.352,-0.205c-0.146,-0.248 -0.146,-0.248 -0.517,0Z" style="fill:#ebebeb;fill-rule:nonzero;"/><path d="M31.906,281.81c-0.339,0.039 -2.245,0.224 -4.221,0.41c-1.977,0.187 -3.715,0.396 -3.851,0.463c-0.175,0.088 -0.096,0.32 0.268,0.793l0.515,0.669l4.293,0c4.077,0 4.288,-0.019 4.19,-0.381c-0.093,-0.342 0.072,-0.394 1.616,-0.514c0.949,-0.074 3.058,-0.139 4.705,-0.144c1.647,-0.006 3.401,-0.08 3.912,-0.165l0.927,-0.155l-1.442,-0.35c-0.788,-0.191 -2.141,-0.44 -2.985,-0.549c-1.442,-0.186 -6.538,-0.236 -7.927,-0.077Z" style="fill:#ebebeb;fill-rule:nonzero;"/><path d="M324.046,322.072c1.182,18.716 1.455,25.629 1.464,37.124c0.008,9.265 -0.05,11.129 -0.578,18.634c-0.352,5.003 -0.542,9.039 -0.474,10.089c0.283,4.386 2.182,8.075 4.561,8.86c1.181,0.39 3.253,0.15 5.148,-0.595c2.726,-1.073 2.483,-0.544 3.182,-6.927c0.987,-9.018 1.082,-10.692 1.102,-19.56l0.019,-8.442l-2.512,-20.425c-1.383,-11.243 -2.512,-20.523 -2.512,-20.642c0,-0.145 -1.575,-0.216 -4.766,-0.216l-4.767,0l0.133,2.1Z" style="fill:#ebebeb;fill-rule:nonzero;"/><path d="M320.217,370.86c-0.188,0.597 -0.321,1.099 -0.299,1.122c0.023,0.023 0.278,0.102 0.567,0.175c0.484,0.124 0.554,0.052 0.895,-0.916c0.204,-0.577 0.338,-1.083 0.299,-1.122c-0.04,-0.04 -0.309,-0.133 -0.597,-0.206c-0.49,-0.125 -0.548,-0.062 -0.865,0.947Z" style="fill:#ebebeb;fill-rule:nonzero;"/><path d="M320.392,386.076c-0.057,0.28 -0.204,1.513 -0.329,2.769c-0.126,1.256 -0.277,2.527 -0.34,2.852c-0.1,0.517 0.072,0.769 1.451,2.121c0.948,0.928 1.703,1.51 1.915,1.472c0.212,-0.037 0.473,-0.453 0.659,-1.05c0.283,-0.906 0.277,-1.042 -0.072,-1.637c-0.209,-0.356 -1.013,-2.09 -1.781,-3.84c-1.093,-2.491 -1.423,-3.081 -1.503,-2.687Z" style="fill:#ebebeb;fill-rule:nonzero;"/><path d="M260.835,401.652c-2.441,3.336 -3.772,5.819 -4.205,7.845c-0.596,2.791 0.872,7.783 3.371,11.469c1.013,1.494 3.727,4.344 5.395,5.666c2.43,1.925 7.289,3.925 9.677,3.982c1.125,0.027 1.37,-0.054 2.729,-0.897c0.823,-0.512 1.469,-0.987 1.441,-1.061c-0.028,-0.073 -0.978,-0.802 -2.111,-1.618c-3.459,-2.494 -8.547,-6.666 -8.535,-6.999c0.006,-0.169 0.276,-1.75 0.598,-3.5l0.587,-3.191l-1.505,-3.089c-1.375,-2.821 -4.371,-7.633 -5.808,-9.327l-0.594,-0.7l-1.04,1.42Z" style="fill:#ebebeb;fill-rule:nonzero;"/><path d="M106.338,404.689c0,0.04 -0.144,0.834 -0.319,1.761c-0.175,0.926 -0.291,1.716 -0.257,1.75c0.034,0.034 0.7,-0.517 1.503,-1.246l1.441,-1.307l-0.679,-0.01c-0.433,-0.007 -0.863,-0.194 -1.184,-0.515c-0.268,-0.268 -0.505,-0.471 -0.505,-0.433Z" style="fill:#ebebeb;fill-rule:nonzero;"/><path d="M306.061,408.025c-0.628,1.091 -1.132,2.063 -1.132,2.183c0,0.118 0.206,0.291 0.453,0.38c0.405,0.148 0.596,-0.041 1.812,-1.791l1.359,-1.956l-0.474,-0.391c-0.267,-0.221 -0.563,-0.391 -0.679,-0.391c-0.115,0 -0.71,0.875 -1.339,1.966Z" style="fill:#ebebeb;fill-rule:nonzero;"/></g></svg>