<?xml version="1.0" encoding="UTF-8" standalone="no"?><!DOCTYPE svg PUBLIC "-//W3C//DTD SVG 1.1//EN" "http://www.w3.org/Graphics/SVG/1.1/DTD/svg11.dtd"><svg width="100%" height="100%" viewBox="0 0 468 468" version="1.1" xmlns="http://www.w3.org/2000/svg" xmlns:xlink="http://www.w3.org/1999/xlink" xml:space="preserve" style="fill-rule:evenodd;clip-rule:evenodd;stroke-linejoin:round;stroke-miterlimit:1.41421;"><g><path d="M338.662,6.706c-31.108,10.07 -55.731,45.455 -68.874,98.977c-5.432,22.119 -8.649,43.652 -10.359,69.349c-0.555,8.339 -1.104,15.261 -1.221,15.402c-0.118,0.141 -2.255,-1.048 -4.807,-2.677c-19.598,-12.502 -39.568,-18.129 -61.521,-17.334c-26.804,0.971 -51.408,11.83 -73.349,32.372c-19.069,17.854 -35.214,45.501 -41.825,71.623c-6.524,25.783 -5.599,54.399 2.508,77.603c12.717,36.398 40.083,65.598 80.757,86.169c48.076,24.315 90.843,30.268 130.955,18.231c50.508,-15.159 91.182,-62.194 102.198,-118.184c2.31,-11.743 3.143,-31.222 1.783,-41.695c-4.001,-30.803 -19.354,-55.502 -43.141,-69.405c-14.982,-8.756 -26.974,-12.148 -47.821,-13.527c-15.912,-1.053 -15.912,-1.053 -30.123,-11.115c-0.689,-0.488 1.056,-18.018 3.175,-31.888c4.264,-27.909 11.367,-53.48 20.493,-73.773c16.837,-37.441 42.603,-62.733 71.294,-69.988l7.573,-1.914l-15.061,-9.913c-8.254,-5.433 -15.715,-9.894 -16.508,-9.871c-0.789,0.023 -3.574,0.731 -6.126,1.558Zm-162.184,212.917c2.963,2.309 5.214,6.804 7.412,14.803l1.778,6.467l-14.38,14.239c-16.423,16.262 -21.535,23.544 -26.56,37.836c-2.991,8.506 -3.051,8.935 -3.014,21.443c0.044,15.073 0.623,17.614 8.555,37.525c5.458,13.7 7.571,21.434 6.65,24.336c-0.838,2.64 -4.862,1.885 -9.457,-1.774c-17.442,-13.889 -30.242,-38.474 -32.525,-62.469c-2.744,-28.846 7.456,-54.569 31.414,-79.22c11.661,-11.998 16.248,-14.976 23.065,-14.976c3.574,0 5.339,0.448 7.062,1.79Z" style="fill-rule:nonzero;"/><g><path d="M168.97,193.679c-34.766,9.404 -61.847,42.42 -71.088,86.667c-2.524,12.083 -2.737,36.619 -0.417,48.077c9.917,48.993 45.126,82.67 101.627,97.204c41.694,10.726 79.237,5.849 109.682,-14.248c34.136,-22.534 56.207,-65.172 54.525,-105.335c-0.752,-17.954 -6.311,-34.282 -15.5,-45.524c-10.592,-12.96 -27.112,-19.422 -53.15,-20.79c-8.935,-0.47 -15.402,-1.233 -17.784,-2.099c-2.042,-0.743 -4.112,-1.362 -4.552,-1.362c-0.502,0 -0.696,8.85 -0.511,23.315c0.164,12.849 0.069,23.181 -0.213,23.017c-0.281,-0.164 -3.243,-4.807 -6.594,-10.338l-6.084,-10.041l-0.553,-18.082c-0.305,-9.955 -0.821,-18.082 -1.149,-18.082c-0.328,0 -6.297,-4.251 -13.274,-9.454c-25.272,-18.844 -36.588,-23.627 -57.352,-24.242c-9.445,-0.28 -12.576,-0.045 -17.613,1.317Zm7.743,25.66c2.972,2.316 5.204,6.804 7.406,14.888l1.784,6.552l-13.615,13.287c-12.083,11.793 -20.23,21.323 -18.294,21.402c0.36,0.015 0,0.544 -0.766,1.124c-2.238,1.695 -6.363,10.136 -8.905,18.22c-2.023,6.435 -2.333,8.849 -2.37,18.465c-0.023,6.126 0.196,12.2 0.491,13.614c1.542,7.37 3.929,14.721 8.07,24.847c7.724,18.89 8.768,25.782 3.905,25.782c-4.056,0 -14.989,-9.53 -21.086,-18.379c-1.758,-2.553 -3.486,-4.595 -3.888,-4.595c-0.434,0 -0.672,-0.256 -0.596,-0.638c0.07,-0.352 -1.652,-4.255 -3.829,-8.68c-2.177,-4.424 -4.607,-10.069 -5.403,-12.551c-0.792,-2.467 -1.774,-4.509 -2.17,-4.509c-0.434,0 -0.519,-0.341 -0.213,-0.851c0.287,-0.479 0.134,-2.043 -0.351,-3.574c-3.071,-9.709 -2.641,-33.271 0.812,-44.418c0.87,-2.808 1.428,-5.258 1.241,-5.446c-0.198,-0.197 0.195,-0.893 0.936,-1.659c0.741,-0.766 1.098,-1.783 0.851,-2.425c-0.229,-0.596 -0.092,-1.224 0.298,-1.361c0.4,-0.142 1.952,-2.723 3.477,-5.787c5.027,-10.096 12.239,-19.911 22.132,-30.122c11.626,-11.998 16.203,-14.976 23.02,-14.976c3.574,0 5.34,0.448 7.063,1.79Z" style="fill:#697f8a;fill-rule:nonzero;"/></g><path d="M176.478,219.623c2.963,2.309 5.214,6.804 7.412,14.803l1.778,6.467l-14.38,14.239c-16.423,16.262 -21.535,23.544 -26.56,37.836c-2.991,8.506 -3.051,8.935 -3.014,21.443c0.044,15.073 0.623,17.614 8.555,37.525c5.458,13.7 7.571,21.434 6.65,24.336c-0.838,2.64 -4.862,1.885 -9.457,-1.774c-17.442,-13.889 -30.242,-38.474 -32.525,-62.469c-2.744,-28.846 7.456,-54.569 31.414,-79.22c11.661,-11.998 16.248,-14.976 23.065,-14.976c3.574,0 5.339,0.448 7.062,1.79Z" style="fill:#ebebeb;fill-rule:nonzero;"/></g></svg>