<?xml version="1.0" encoding="UTF-8" standalone="no"?><!DOCTYPE svg PUBLIC "-//W3C//DTD SVG 1.1//EN" "http://www.w3.org/Graphics/SVG/1.1/DTD/svg11.dtd"><svg width="100%" height="100%" viewBox="0 0 123 199" version="1.1" xmlns="http://www.w3.org/2000/svg" xmlns:xlink="http://www.w3.org/1999/xlink" xml:space="preserve" style="fill-rule:evenodd;clip-rule:evenodd;stroke-linejoin:round;stroke-miterlimit:1.41421;"><g id="Layer_1"><g><path d="M114.2,19.5c-21.9,-6.9 -42.5,-9.5 -52.6,-9.5c-10.1,0 -30.7,2.6 -52.6,9.5l0,169.3c21.9,6.9 42.5,9.5 52.6,9.5c10.1,0 30.7,-2.6 52.6,-9.5c0,-5.1 0,-31.6 0,-35.9l0,-96.8c0,0 0,-31 0,-36.6Z" style="fill:#697f8a;fill:none;"/><path d="M8.9,189.3l-0.4,-0.1l0,-0.4c0,-5.6 0,-36.5 0,-36.5l0,-0.5l0,-95.7c0,0 0,-30.9 0,-36.5l0,-0.4l0.4,-0.1c22,-6.9 42.6,-9.5 52.7,-9.5c10.1,0 30.7,2.6 52.7,9.5l-0.1,0.5l0.1,-0.5l0.4,0.1l0,170.1l-0.4,0.1c-22,6.9 -42.6,9.5 -52.7,9.5c-10.1,-0.1 -30.7,-2.7 -52.7,-9.6Zm52.8,8.5c9.9,0 30.3,-2.5 52.1,-9.3c0,-5.9 0,-31.3 0,-35.6l0,-0.5l0,-96.8c0,-3.9 0,-29.7 0,-35.7c-21.7,-6.8 -42.1,-9.3 -52.1,-9.3c-9.9,0 -30.3,2.5 -52.1,9.3l0,168.7c21.7,6.7 42.1,9.2 52.1,9.2Z" style="fill:none;"/></g><path d="M11.6,57.5l49.9,0.1c0,0 0,-43.1 0,-44.7c-9.6,0 -29.1,2.5 -49.9,9.2c0,5.3 0,35.4 0,35.4Zm49.9,-44.7c0,1.6 0,44.7 0,44.7l49.9,-0.1c0,0 0,-30 0,-35.5c-20.7,-6.6 -40.3,-9.1 -49.9,-9.1Z" style="fill:none;"/><path d="M112.1,49.3l-30.8,-1.1l30,-6.3l-28.9,2.8l27.4,-10.3l-28.5,7.4l25.9,-14.9l-27.5,12l22.4,-18.9l-24.5,16.1l17.5,-19.8l-0.5,-0.1l-19.4,17.8l12.4,-19.1l-0.8,-0.1l-14.2,17.6l8.2,-18.6l-1.1,-0.1l-10.4,17.8l5.1,-18.3l-1.2,-0.2l-6.8,17.4l2,-17.6l-1.4,0l-4,17.5l-0.8,-17.6l-0.7,0l-0.7,0l-0.8,17.6l-3.9,-17.4l-1.5,0.2l2.1,17.3l-6.6,-16.9l-1.3,0.1l4.9,17.9l-10,-17.3l-1.3,0.2l8.1,18l-13.7,-17l-0.9,0.3l12,18.3l-18.6,-17l-0.6,0.2l16.8,18.9l-24.5,-16.1l22.3,18.9l-27.4,-12l25.9,14.9l-28.6,-7.4l27.5,10.3l-29,-2.8l30.1,6.3l-30.8,1.1l50.6,-0.1l0,0.1l50.5,0Z" style="fill:#fff;fill-rule:nonzero;"/><path id="mountains" d="M11.6,150.8c0,0 0,-85.9 0,-96.4c0,0 1.5,-1.3 3.6,-1.9c2.1,-0.6 23.8,-9 33.5,-15.8c0,0 16.7,11.1 26.2,12.5c0,0 -1.5,-2.7 -3.4,-3.2c-1.8,-0.6 -14.7,-4.5 -16.4,-8.4c0,0 7,-2.1 15.2,-8.1c0,0 17.5,15.1 34.6,22c0,0 2.6,0.8 6.5,3c0,0 0,93.4 0,96.4c0.1,-0.1 -97.2,0 -99.8,-0.1Z" style="fill:#697f8a;fill-rule:nonzero;"/><path d="M111.5,150.8c-13.6,-4.2 -29.5,-6.2 -39.7,-7.1c-5.2,-1.4 -5.3,-5.8 -5.7,-10.8c-0.3,-5 -0.8,-9.2 -1.4,-15.4c-0.2,-1.9 -0.3,-3.2 -0.3,-4.3c1.3,-0.4 2.3,-1 2.8,-1.4c0.5,-0.5 1.4,-1.4 2.2,-1.6c0.8,-0.2 -0.8,1.3 -1.8,1.9c-1,0.6 -1.6,2.1 -1.6,3.4c0,1.3 0.6,3.4 0.6,2.9c0,-0.4 1,-1.2 2.5,-2.6c0.2,-0.2 0.3,-0.4 0.4,-0.6c0.6,-0.1 2,-0.3 2.7,-0.6c0.9,-0.3 1.5,-1.5 1.8,-2c0.3,-0.6 0.3,-0.7 1.8,-1.6c1.5,-0.8 0.8,4.1 -1.7,6.4c-0.2,0.2 -0.7,0.9 -1.5,1.6c-0.9,0.3 -2.3,0.5 -3,1.5c-0.9,1.1 -1.8,3.8 -1.8,3.8c0,0 1.9,-0.1 2.5,-0.5c0.6,-0.4 2.7,-0.9 2.8,-3.5c0,-0.2 0,-0.4 0.1,-0.5l0,-0.1c0.1,-0.4 1.6,-2.4 2,-2.8c0.4,-0.4 0.6,-0.2 1,0.7c0.4,0.9 0,2.7 0.3,4.7c0.4,2 3.4,3.2 3.4,3.2c0,0 -0.2,-0.8 -0.3,-1.4c-0.1,-0.5 0,-2 0,-2.8c-0.1,-0.8 -1.7,-2.7 -2.4,-3.4c-0.7,-0.7 -0.8,-1.1 -0.9,-1.7c0,-0.6 0.5,-1.5 0.5,-1.7c1.6,-4.3 -1,-7.7 -2,-8.5c-1.1,-0.8 2.6,-0.9 3.2,-0.7c0.6,0.1 0.5,2.4 0.4,3.8c-0.1,1.3 0.1,2.2 0.9,3.1c0.2,0.2 0.4,0.4 0.6,0.6c-1.2,1 -2.4,2.5 -2.4,2.4c0.1,-0.1 2.8,0.3 4.4,0.1c1.7,-0.2 1.9,-1.9 2.2,-2.2c0.3,-0.4 1.2,-0.8 2,-1c0.8,-0.1 0.8,0.1 0,1.7c-0.8,1.6 -1.8,4.7 -2,4.9c-0.1,0.2 -0.9,1.4 -1.8,2.1c-0.9,0.6 -1.5,1.6 -1.5,2.2c0,0.6 0.1,4.2 0.1,4.2c0,0 1.2,-1.3 2.1,-1.9c0.8,-0.6 1.1,-1 1.5,-2.2c0.4,-1.2 0,-2.9 0,-3.5c0,-0.6 0.6,-1.8 1,-2.4c0.3,-0.7 0.5,-1.3 0.5,-1.3c0,0 0.8,-1.9 1.1,-2.3c0.2,-0.2 0.5,-0.1 0.8,0.1c0.4,0.6 1.6,2.7 2.1,4.3c0.5,1.8 0,2.7 -0.2,2.9c-0.1,0.2 -0.9,0.3 -1.5,0.2c-0.6,-0.1 -1.1,0.3 -1.8,0.5c-0.6,0.2 -1.4,1.9 -1.7,2.5c0.8,-0.4 2.9,-0.5 3.8,-1.1c0.9,-0.6 1.6,-2.1 1.6,-2.1c0.1,-0.1 0.3,-0.8 0.3,-1c0.3,0.1 0.7,0.4 1.4,0.7c-0.3,0.4 -0.5,0.9 -0.5,1.4c0,1.3 1,2.3 2.3,2.3c1.3,0 2.3,-1 2.3,-2.3c0,-1.3 -1,-2.3 -2.3,-2.3c-0.5,0 -1,0.2 -1.4,0.5c-0.2,-0.3 -1.8,-0.8 -1.8,-1.1c0,-1.1 -0.5,-2.2 -0.6,-2.7c-0.3,-0.7 0.3,-0.2 0.5,-0.1c0.2,0.1 0.2,0.9 0.3,1.2c0.3,0.9 0.5,1.2 2.6,1.6c0.6,0.1 0.9,0.4 0.9,0.4c0,0 0,-0.6 -0.1,-1c-0.1,-0.9 -1.3,-1.6 -1.8,-1.9c-0.9,-0.5 -1.5,-0.5 -1.9,-0.6c-0.4,-0.1 -0.9,-0.6 -1.1,-1c-0.1,-0.2 -0.4,-0.7 -0.6,-1c0.2,0.1 0.3,0.2 0.3,0.2c0.7,0.9 1.9,1.3 3.1,1.4c1.2,0.1 2.4,-0.3 3,-0.3c0.6,0 1.7,-0.1 0.3,-0.9c-1.4,-0.8 -3.2,-1.6 -3.8,-1.6c-0.6,0 -2.2,0.6 -2.7,0.7c-0.6,0.1 -1.3,-0.8 -1.3,-0.8c0,0 1.5,-2.6 1.5,-2.8c0.8,-1.8 0.9,-3.4 0.8,-4.8l0.1,0.1c0.3,0.3 1.4,3.1 1.4,3.5c0,0.4 -0.2,1 0.1,2c0.3,1 3.6,2.3 4.5,2.6c0.9,0.3 -0.5,-2.8 -0.5,-2.8c0,0 -0.9,-1.4 -2.3,-2c-0.3,-0.1 -1.5,-0.3 -1.6,-0.5c-0.1,-0.3 -1,-2.3 -0.4,-1.8c0.5,0.4 2,1.5 3.4,1.5c0.6,0.2 1.3,0.7 1.5,1.1c0.3,0.5 0.5,1 1.3,1.9c0.8,0.9 5.1,0.7 4.8,0.4c-0.3,-0.3 -2.2,-2.6 -2.9,-3c-0.7,-0.4 -3.2,-0.2 -3.4,-0.1c-0.2,0 -0.5,-0.1 -0.8,-0.3c0.2,0 0.3,-0.1 0.5,-0.1c0,0 1.7,-0.2 2.6,-0.9c0.8,-0.8 1.6,-2.8 2.2,-3.6c-0.8,0.1 -2.5,0.4 -3.1,0.7c-0.7,0.4 -0.9,1.4 -1,2c-0.1,0.6 -0.4,1.4 -0.6,1.5c-0.3,0.1 -1.3,0.4 -3,-0.6c-1.7,-1 -2.8,-2.1 -2.9,-2.3l-0.1,-0.1c-0.3,-1.9 -1,-3 -1.1,-3.2c0,-0.1 0.2,-0.2 0.5,-0.3c0,0.1 0,0.1 0.1,0.2c0.4,0.2 0.7,0.6 0.7,1.1c0.1,0.4 0.3,0.9 0.7,1.7c0.3,0.8 2.9,1.8 2.7,1.5c-0.1,-0.3 -0.7,-2.3 -1.1,-2.8c-0.3,-0.5 -2,-1 -2.3,-1c-0.1,0 -0.3,-0.4 -0.4,-0.6c0.2,0 0.4,0 0.6,0c0.6,0.1 1.1,0.7 3.3,1.1c2.3,0.4 5.5,-2.1 5.2,-2c-0.2,0.1 -2.7,-0.7 -4.3,-1.4c-1.6,-0.7 -3.7,1.5 -3.7,1.5c0,0 -1.7,0.3 -2.3,0.3c-0.6,0 -1.5,-1.7 -2.5,-2.8c-1,-1.1 -2.7,-1.9 -3.2,-2.2c-0.4,-0.2 0.1,-0.5 0.4,-0.6c0.3,0 1.6,-0.2 3,0c1.4,0.2 2.3,-0.4 2.8,-0.9c0.2,-0.2 0.8,-0.8 1.4,-1.3c0,0.1 0.1,0.2 0.1,0.3c0.2,0.3 0.3,0.6 0.4,0.8c-0.6,0.4 -1,1.1 -1,1.9c0,1.3 1.1,2.4 2.4,2.4c1.3,0 2.4,-1.1 2.4,-2.4c0,-1.3 -1.1,-2.4 -2.4,-2.4c-0.1,0 -0.2,0 -0.4,0c-0.2,-0.2 -0.4,-0.4 -0.6,-0.6c-0.2,-0.2 -0.3,-0.3 -0.4,-0.5c0.4,-0.4 0.7,-0.8 0.6,-0.7c-0.1,0 -0.5,0 -1,0c-0.3,-0.6 -0.5,-1.2 -0.5,-1.2c0,0 5,0.5 5.5,0.8c0.5,0.3 2.3,1.2 3.5,1.4c1.1,0.3 1.8,1.6 3,2.3c1.2,0.7 2.8,0.5 3.4,0.4c0.6,-0.1 2.4,-0.2 2.4,-0.2c0,0 -1.4,-1.4 -2.2,-2.3c-0.8,-0.8 -1.6,-1 -3.2,-1c-1.7,0 -2.6,0.4 -3.3,0.2c-0.7,-0.2 -2.6,-1.4 -3.7,-1.8c-1.1,-0.4 2.6,-2.9 3.3,-3.2c0.7,-0.2 1.6,0.1 2,0.3c0.4,0.2 1.3,1.1 2.8,1.6c1.4,0.5 2.7,-0.3 3.6,-0.7c-0.6,0 -1.3,-0.9 -2.2,-1.8c-0.9,-0.9 -2.5,-0.5 -3.3,-0.3c-0.7,0.2 -1.5,0.4 -2.1,0.3c-0.6,0 0,-0.4 0.2,-0.7c0.2,-0.4 0.7,-0.3 2.7,-0.8c2,-0.5 2,-1.2 2.7,-2.4c0.6,-1.2 0.8,-2.2 1,-2.5c-4.7,1.1 -4.8,2.1 -5.4,2.7c-0.2,0.2 -0.4,0.5 -0.5,0.9c-0.7,-1 -1.4,-2.7 -2.3,-3.6c-1.1,-1.3 -3.4,-1.5 -3.4,-1.5c0,0 -1.7,-1.2 -2.5,-2.1c-0.8,-0.9 2.1,-2.6 3.2,-3.1c1.2,-0.6 1.4,-0.4 2,-0.1c0.3,0.1 1.2,0.3 1.8,1.4c0.6,1.1 3,1 3.6,0.8c0.6,-0.2 1.7,-0.3 2.5,-0.3c-2.3,-2.3 -3.8,-2.4 -4.6,-2.3c-0.9,0.1 -1.5,0.5 -3.1,0c-0.6,-0.2 -0.3,-0.4 0.1,-0.5c0.4,-0.1 1.4,-0.5 2,-0.8c0.4,0.7 1.1,1.2 2,1.2c1.2,0 2.3,-1 2.3,-2.2c0,-1.2 -1,-2.2 -2.3,-2.2c-1.2,0 -2.2,1 -2.2,2.2c0,0.2 0,0.4 0.1,0.5c-0.2,0.1 -0.3,0.3 -0.5,0.3c-0.5,0.1 -0.7,0 -0.7,-0.4c0,-0.4 0.2,-0.9 0.3,-1.3c0.1,-0.4 1,-1 1.5,-1.8c0.5,-0.9 -0.1,-2.6 -0.2,-3c0,-0.2 -0.1,-0.8 -0.2,-1.3c0.1,-0.1 0.1,-0.1 0,-0.1c-0.1,-0.5 -0.2,-0.8 -0.3,-0.6c0,0.1 -0.1,0.3 -0.3,0.5c-0.7,-0.2 -1.8,-0.8 -2.5,-1.1c-0.9,-0.4 -3.6,0.5 -4.1,0.9c-0.5,0.4 -0.6,0.7 -1.7,0.8c-1.1,0.1 -1,-0.2 -1,-0.2l1.6,-1.3l0.5,-0.4c0.4,-0.3 0.9,-0.5 1.4,-0.6c0.8,-0.1 1.7,-0.2 3.1,-1.1c1.3,-0.8 2.2,-5.4 1.7,-5.2c-0.5,0.2 -3.8,1.5 -4.6,2c-0.7,0.5 -1.4,3 -1.5,3.7c-0.1,0.1 -0.7,0.6 -1.3,1.1l-0.1,0c-0.2,0.2 -0.4,0.3 -0.6,0.5c-0.8,0.6 -1.1,0.3 -1,-0.4c0.1,-0.7 -0.1,-0.5 0.9,-2c1,-1.5 0.6,-3.4 0.1,-4.5c-0.5,-1.1 -0.9,-2.2 -1,-2.6c-0.5,0.8 -1.6,3.2 -1.9,4.8c0.2,1.5 1.7,3.5 1.7,3.5l0,2.5c0,0 -1.9,1.8 -3.5,2.9c-1.1,0.7 -1.2,0.3 -1.4,-0.1c-0.3,-0.6 -0.5,-0.9 -0.5,-1.5c0,-0.6 0.7,-1.6 0.7,-1.6c0,0 1.3,-1 2.1,-2.1c0.7,-1.1 0.7,-2.1 0.8,-3c0.1,-0.9 0.3,-2.7 0.3,-2.7c0,0 -0.6,0.7 -1.7,1.6c-1.1,0.8 -1,0.9 -1.7,1.7c-0.8,1 -0.3,4.1 -0.3,4.1c0,0 -0.3,0.8 -0.8,1.4c-0.5,0.6 -0.6,0.1 -1,-0.6c-0.4,-0.7 -0.7,-2.8 -0.7,-3.5c0,-0.8 0.2,-1.4 0.5,-2c0.3,-0.6 0.1,-1.6 0,-2.9c-0.1,-1.4 -2.3,-2.8 -2.9,-3.5c0.2,1 0.1,1.8 -0.3,3.7c-0.4,1.9 1.6,3.3 1.8,3.8c-0.1,2.4 0.2,3.5 0.6,4.5c0.5,1 -1.5,0 -1.7,-0.2c-1.1,-4.1 -7.9,-2.3 -8.2,-1.4c-0.3,0.9 5.5,4.9 8.3,2.3c0.5,-0.4 1.7,0.5 2.7,1.4c1,0.9 1.5,2.8 2,3.8c0.5,0.9 -0.7,0.7 -1.1,0.6c-0.2,-0.1 -0.4,-0.2 -0.6,-0.2c-0.3,-0.6 -0.5,-1 -0.7,-1.2c-0.4,0.3 -0.6,0.6 -0.9,0.9c-1.4,-0.1 -2.2,0.6 -2.7,0.9c-0.7,0.4 -1.3,1 -1.8,1.2c1,0.7 2.4,1.2 3.6,1.4c0.2,1.6 1,2.9 1.1,3.3c0.1,0.8 -0.7,0.6 -1,0c-0.3,-0.5 -1.8,-1.1 -2.8,-1.9c-1,-0.7 -1,-1.3 -1,-1.8c0,-0.6 0.1,-1.7 -0.1,-3.7c-0.2,-2 -2.9,-3.9 -3.5,-4.2c0.4,1.4 -0.2,3.3 0,4.6c0.2,1.3 2.7,2.9 3.2,3.8c0.6,1 -1.5,0.6 -2.7,-0.1c-1.2,-0.7 -4.1,-2.9 -4.6,-3.4c-0.5,-0.5 -0.6,-1.3 -0.7,-1.9c0,-0.6 -0.9,-2 -1.5,-2.8c-0.6,-0.8 -2.8,-1.3 -3.3,-1.5c-0.5,-0.2 -0.9,-0.6 -0.9,-0.6c0,0 0.1,0.5 0.3,1.3c0.1,0.7 0.2,1.7 1.1,3.4c0.9,1.7 3.4,1.7 3.8,2.1c0.5,0.4 2,1.7 3.7,2.7c1.7,1.1 2,1.8 1.2,1.7c-0.8,-0.1 -2.9,-0.3 -4.4,-0.1c-0.4,0.1 -0.9,0.3 -1.3,0.6c-0.7,-3 -2.3,-3.9 -3.2,-5.2c-0.3,-0.4 -0.7,-0.9 -1.1,-1.4c-0.1,-0.6 -0.4,-1.4 -0.6,-1.8c-0.2,-0.7 -1.8,-1.9 -2.5,-2.2c-0.2,-0.1 -0.6,-0.3 -1.1,-0.4c-0.7,-0.5 -0.9,-0.7 -0.8,-1c0.1,-0.3 2.1,-1.4 2.7,-1.8c0.5,-0.4 1.6,0.1 2.3,0.4c0.7,0.3 1.9,1.1 3,1.2c1.1,0.1 1.7,-0.3 2.7,-0.5c1,-0.2 1.3,-0.7 1.3,-0.7c0,0 -0.5,-0.2 -1.5,-0.7c-1.1,-0.5 -1.9,-0.8 -2.9,-1c-1,-0.1 -2.2,0.8 -2.2,0.8c0,0 -1.3,0.2 -1.8,0c-0.5,-0.2 1.7,-1.3 2.6,-1.6c0.4,0.4 0.9,0.6 1.5,0.6c1.2,0 2.2,-1 2.2,-2.2c0,-1.2 -1,-2.2 -2.2,-2.2c-1.2,0 -2.2,1 -2.2,2.2c0,0.2 0,0.4 0.1,0.6c-0.5,0.6 -1.3,1.3 -2.2,1.9c-0.6,0.3 -0.5,-0.3 -0.3,-0.8c0.1,-0.5 0.5,-0.5 1.1,-1c0.6,-0.5 0.6,-1 1.1,-1.6c0.4,-0.6 0.2,-1.2 0.1,-1.5c-0.8,1.2 -2.6,1.2 -3.1,1.3c-0.1,1.3 0.2,2.5 0.2,2.5l-0.2,1.2c0,0 -1.6,1.2 -2.4,1.5c-0.8,0.4 -1.1,-0.7 -1.2,-1.5c-0.1,-0.8 -0.4,-2.4 0,-2.9c0.4,-0.5 1.4,-1.2 1.9,-1.2c0.5,0 2.2,-0.4 3.5,-0.7c1.3,-0.4 1.3,-1.3 1.8,-2.3c0.5,-1 1.1,-1.5 1.1,-1.5c0,0 -0.7,-0.2 -1.7,0c-1,0.1 -2.8,0.9 -3.8,1.6c-1,0.7 -1.3,2.4 -1.3,2.4c0,0 -0.6,0.2 -1.7,0.9c-1.1,0.7 -0.9,3.7 -0.6,4.7c0.3,1 0,0.9 -0.6,0.6c-0.6,-0.3 -1.9,-0.6 -2.2,-0.7c-0.2,-0.1 -1.4,-0.6 -2.2,-1.1c0.1,-0.4 0.2,-0.8 0.3,-1.2c0.2,-1.3 -0.4,-2.9 -0.6,-3.7c-0.2,0.4 -0.9,1.2 -1.7,1.9l0,-0.1c0,0 0.3,-0.9 0.4,-1.8c0.1,-0.9 -0.2,-0.8 -0.7,-1.1c-0.6,-0.3 -0.5,-0.8 -0.5,-0.8c0,0 -0.8,0.2 -1.4,1.5c-0.6,1.3 1.3,2.5 1.3,2.5c0,0 0.1,0.1 0.2,0.4c-0.3,0.3 -0.6,0.6 -0.6,0.8c-0.3,0.6 0.2,3 0.4,3.7c-0.5,1.2 -0.5,2.5 -0.1,4c0.4,1.5 -0.3,4.6 -0.6,5.8c-0.4,1.2 -2.8,-1.6 -3.4,-2.5c-0.6,-0.8 -0.8,-2.1 -0.9,-2.7c-0.1,-0.5 0.7,-2 1.4,-3.4c0.7,-1.4 0.1,-2.6 -0.3,-3.4c-0.4,-0.8 -1,-2.6 -1,-2.6c0,0 -1.7,3.3 -2,4.4c-0.3,1.1 1.1,3.4 1.4,3.9c0.3,0.6 0,1.4 0,1.4c0,0 -1.9,-3.4 -2,-3.8c-0.1,-0.4 0.1,-1.7 0.3,-2.2c0.2,-0.5 0.7,-1.3 1.1,-2c0.3,-0.6 -0.1,-1.5 -0.3,-2.3c-0.2,-0.8 -0.6,-1.9 -0.8,-2.6c0,0.5 -1.4,2.2 -1.8,3.6c-0.4,1.4 1.1,3.4 1.1,3.4c0,0 0,1.3 0,2c-0.1,0.6 -1.6,-0.6 -2.1,-1.5c-0.5,-0.9 -1.4,-1.6 -2.4,-1.9c-1,-0.4 -3.1,0.2 -3.1,0.2c0,0 0.6,0.6 1,1.2c0.4,0.6 1.8,1.6 2.9,1.8c1.1,0.1 2.4,0.3 3.1,0.7c0.7,0.4 0.9,1 1.2,1.5c0.3,0.5 1,1.8 1.7,3.1c0.7,1.3 -0.2,1.4 -0.6,1.1c-0.4,-0.3 -0.9,-0.9 -1.4,-1.6c-0.6,-0.7 -1.7,-1.2 -2.5,-1.4c-0.8,-0.2 -3.5,0 -4.4,0.2c0.9,0.3 2.8,2.9 4.1,3.5c1.2,0.6 3.4,0.1 5,0.2c1.6,0.1 1.6,0.9 2.3,1.6c0.6,0.6 -0.1,1 -0.8,1.2c-0.7,0.2 -1.2,0.2 -2.3,0.6c-1.1,0.4 -3.1,2.2 -3.6,3.4c-0.5,1.2 -0.2,1.1 0.2,0.8c0.4,-0.3 2.9,-0.1 3.6,-0.5c0.7,-0.5 1.5,-1.7 1.6,-2.3c0.1,-0.6 0.8,-1.4 1.4,-1.7c0.6,-0.3 0.1,1.8 -0.1,3.2c-0.1,0.7 -0.1,1.5 0.1,2.2c-0.7,-0.4 -1.5,-0.8 -2.1,-0.8c-1.1,-0.1 -2.5,0.7 -2.5,0.7c-1.7,0.4 -2.5,2.9 -2.7,3.6c-0.2,0.7 -0.4,1 -0.5,1.4l0,0.1c-1,-1.4 -1.8,-2.9 -2.4,-3.9c0,-0.6 0,-1.6 0.4,-2.1c0.6,-0.8 1.6,-2 1.4,-3.4c-0.2,-1.4 -1.3,-4 -1.3,-4c0,0 -1.1,1.6 -1.4,2.3c-0.3,0.7 -0.7,2.4 -0.3,3.6c0.4,1.2 0.6,1.1 0.7,2.2c0,0.2 0.1,0.4 0.1,0.5c0,-0.1 -0.1,-0.2 -0.1,-0.2c-0.7,-1.7 -2.2,-6.1 -2.9,-8.3c0.8,-0.4 1.3,-1.2 1.3,-2.2c0,-1.4 -1.1,-2.4 -2.5,-2.4c-1.3,0 -2.4,1.1 -2.4,2.4c0,1.4 1.1,2.5 2.4,2.5l0.1,0c0.3,1.3 0.8,2.8 1.3,4.3c-0.2,-0.2 -0.4,-0.3 -0.6,-0.4c-0.9,-0.6 -0.8,-0.7 -1.7,-1.6c-0.9,-0.9 -2.7,-1.3 -3.4,-1.3c-0.7,0 -2.7,0.3 -2.7,0.3c0,0 1.9,2.1 3.1,2.9c1.2,0.8 2.8,0.4 3.7,0.2c0.5,-0.1 1.3,0.2 1.8,0.4c1.2,3.3 2.5,6.3 2.8,6.9c0.5,0.9 -1.1,1 -2,1.1c-1,0 -1.5,0 -2.1,-0.5c-0.6,-0.4 -1,-1.1 -1.1,-1.5c-0.1,-0.4 -0.5,-1.6 -0.9,-2.8c-0.4,-1.2 -1.8,-1.6 -2.7,-2.1c-0.8,-0.5 -2.1,-0.8 -2,-0.5c0.1,0.3 0.5,1.3 0.6,2.3c0.1,1 0.8,1.9 1.8,2.8c1,0.9 2.1,1 3.2,1.5c1.1,0.5 0.2,0.9 -1.6,0.6c-1.8,-0.3 -2.7,-0.7 -3.5,-1c-0.8,-0.2 -0.5,-0.9 -0.7,-1.5c-0.2,-0.6 -0.2,-1.5 -0.2,-2.4c0,-0.9 -0.2,-1.5 -0.7,-2.3c-0.5,-0.8 -2.3,-2.1 -2.3,-2.1c0,0 0,1.9 0.2,3.3c0.1,1.4 1.9,2.7 2.4,3.1c0.5,0.4 0.6,1.5 0.6,1.5l-0.8,-0.4l-0.8,0.3c0,0 2,0.7 2.5,1c0.6,0.3 -0.4,0.5 -1.2,0.9c-0.9,0.4 -1.4,0 -2.7,0.1c-1.3,0.1 -2.2,2 -2.5,2.5c1.2,0.4 3.3,0.1 3.9,-0.1c0.6,-0.2 1.8,-1.8 2.6,-2.7c0.7,-0.9 1.3,0 2.4,0.2c1.1,0.2 3.5,0.4 4.9,0.4c1.4,0 -0.8,0.8 -1.8,0.8c-1,0 -2.5,0.6 -3.3,1.2c-0.7,0.6 -1.8,2.4 -2,3.1c1.1,-0.3 2.9,-0.2 3.9,-0.3c0.9,-0.1 1.9,-1.7 2.4,-2.6c0.6,-0.9 0.6,-0.9 0.9,-1.2c0.3,-0.3 1.5,-1.1 2.3,-1.1c0.7,-0.1 1.5,0.2 2,1.4c0.3,0.8 1.3,2.2 2.3,3.5c-0.6,0.4 -1.5,0.9 -1.9,1.2c-0.4,0.3 -0.8,-0.3 -1.9,0.8c-1.1,1.1 -2.3,3.5 -2.5,4.2c0.3,0 2.6,-0.8 3.2,-1.2c0.6,-0.4 1.6,-1.7 1.7,-2.9c0.2,-0.5 1.1,-1.7 1,-1.2c-0.1,0.6 0.1,2.2 0,2.8c0,0.2 -0.1,0.3 -0.1,0.4c-0.8,0.4 -1.3,1.1 -1.3,2.1c0,1.3 1,2.3 2.3,2.3c1.3,0 2.3,-1 2.3,-2.3c0,-1.3 -1,-2.3 -2.3,-2.3l-0.1,0c-0.1,-0.3 -0.3,-0.5 -0.3,-0.8c0,-0.7 -0.2,-2.3 0.2,-2.7c0.5,0.7 1.1,1.3 1.5,1.9c0.5,0.5 1.2,1.5 2.1,2.5c0,0.9 0.1,2.3 0.2,3.6c0.1,1.7 1.6,1.8 2.3,2.6c0.7,0.8 0.5,1.7 0.5,1.7c0,0 0.2,0 0.3,-0.1c-0.5,0.2 -1.1,0.3 -1.4,0.4c-1,0.4 -2.3,-0.9 -3,-1.7c-0.7,-0.7 -4.8,-2.8 -8.5,-2.2c-2,0.3 -3.5,1 -4.7,1.6c-0.1,-0.5 0.1,-1 0.4,-1.3c0.3,-0.4 0.5,-1 1,-2c0.5,-1 -0.7,-4.1 -0.9,-3.8c-0.2,0.3 -1.5,2.6 -1.7,3.3c-0.2,0.7 0.7,2.7 0.9,2.9c0.1,0.1 -0.1,0.6 -0.2,0.9c-0.7,-0.2 -1.3,-0.8 -1.6,-1.4c-0.3,-0.6 -0.9,-1.3 -1.8,-2.4c-0.9,-1.2 -5.4,-1.7 -5.1,-1.3c0.3,0.4 2.2,3.4 2.9,4.1c0.7,0.6 3.7,0.8 4.1,0.7c0.2,0 0.7,0.5 1,0.8c-0.5,0.3 -0.9,0.6 -1.2,0.7c-0.8,0.4 -3,0.7 -4.4,1.6c-1.3,0.9 -2,4 -1.8,3.6c0.1,-0.4 1,-0.3 2.4,-0.5c0.3,0 0.5,-0.1 0.7,-0.1c0,0.6 -0.1,1.2 -0.1,1.7c0,1.2 1.2,3 2,3.6c0.8,0.6 1.4,1 2.3,2.1c0.9,1.1 0,0.6 -0.6,0.6c-0.6,-0.1 -1.3,-0.7 -1.9,-1.2c-0.6,-0.5 -2.3,-0.7 -3.3,-0.7c-1,0 -3,1.3 -2.6,1.2c0.5,-0.1 1.8,1.4 2.9,2.1c1.1,0.6 3.1,0 4,-0.3c1,-0.3 2.6,-0.4 3.6,0.4c1,0.8 5.1,1.5 6.2,1.3c1.2,-0.2 0,0.5 -0.2,0.7c-0.2,0.2 -1.1,0.2 -2.1,0.3c-0.2,-0.1 -0.5,-0.1 -0.7,-0.1c-1.2,0 -2.3,1 -2.4,2.2c-0.1,0.1 -0.1,0.2 0,0.3c0,1.3 1.1,2.3 2.4,2.3c1.3,0 2.4,-1.1 2.4,-2.4c0,-0.2 0,-0.3 0,-0.5c0.4,-0.7 0.8,-1.3 1,-1.6c0.4,-0.5 1.2,-1.2 2.4,-1.4c1.1,-0.2 -0.2,1.4 -0.9,2.6c-0.7,1.2 -1,1.6 -1.7,2c-0.7,0.4 -2.5,1.8 -3.2,2.8c-0.6,0.9 -0.4,3.9 -0.4,3.9c0,0 2.6,-0.7 3.7,-1.5c1.1,-0.7 1,-4.1 1.2,-4.7c1.2,-1.7 2.8,-6 3.1,-7.1c0.3,-1.1 0.3,1.3 0.3,1.3c0,0 -1.1,2.4 -1.5,4.3c-0.4,1.9 1.7,4 1.7,4c0,0 0.4,-1.4 0.8,-2.2c0.5,-0.8 0.3,-1.9 0.2,-2.4c-0.1,-0.6 -1,-1.8 -1,-2.7c0,-0.8 0.4,0.3 0.7,1.6c0.3,1.3 4.3,4.2 4.9,4.7c1.5,3.6 6.6,2.1 6.6,2.1c0,0 -2.4,-1.9 -3,-2.7c-0.6,-0.7 -2.8,-0.2 -3.3,-0.2c-0.5,0 -2.5,-1.8 -3.2,-2.6c-1.8,-2.2 -1.7,-3.7 -1.9,-5.7c-0.2,-2 1.6,-5 2,-6.1c0.2,-0.7 0.4,-0.9 0.5,-0.7c-0.5,1.5 -0.8,3.2 -0.5,3c0.1,-0.1 0.5,-0.3 0.9,-0.5c0.1,0.4 0.2,0.7 0.3,1c0.2,0.6 1.3,1.5 1.6,2.6c0.1,0.3 0,0.6 -0.2,0.8c-0.4,-0.2 -0.8,-0.4 -1.2,-0.4c-1.3,0 -2.3,1 -2.3,2.3c0,1.2 1,2.3 2.3,2.3c1.3,0 2.3,-1 2.3,-2.3c0,-0.7 -0.3,-1.3 -0.8,-1.7c0.2,-0.3 0.4,-0.6 0.4,-0.7c0.1,-0.2 1.2,1.8 1.7,2.7c-0.1,1.7 0.7,3.6 1.8,4.7c1.1,1.1 4.2,2.1 3.9,1.9c-0.2,-0.2 -0.9,-2.8 -1,-3.9c-0.1,-1 -1.9,-1.8 -2.8,-2.3c-1,-0.5 -1.6,-1.1 -2,-1.7c1.1,0.7 -2.8,-4.1 -2.9,-4.6c-0.2,-0.5 0.1,-0.9 1,-0.7c0.9,0.1 1.3,1.1 1.5,1.5c-0.2,0.9 0.4,2.4 1.1,3.3c0.7,0.8 3.8,1.7 3.8,1.7c0,0 -1.4,-3.5 -1.7,-4.1c-0.3,-0.6 -1.8,-1 -2.3,-1.2c-0.5,-0.2 -1.1,-1.2 -1.1,-1.2l0.7,0c0,0 2.2,1.3 3.8,1.6c1.6,0.3 3.7,-1 4.2,-1.2c0.5,-0.2 0.6,-0.4 0.2,-0.4c-0.4,0 -2.6,-1.4 -4.5,-1.7c-1.9,-0.3 -3.4,1 -3.4,1c0,0 -1.9,0.2 -3.1,0c0.9,-0.5 1.8,-1.1 2.1,-1.4c0.7,-0.7 1.1,-3.7 1,-4c0,-0.3 1,-1 1.2,-1.1c0.5,0.3 0.9,0.6 1.2,0.8c0.5,0.5 4.5,3.9 6.5,6.3c2,2.4 1.3,4.4 1.4,5.5c0,1.1 -0.1,9.7 -0.1,13.1c0,3.1 0.6,14.3 -6.8,16.5c-10.7,1 -25.8,3.1 -38.7,6.9l50,0l0,0.2l49.5,-0.1Zm-70.1,-44.9c-0.4,0.6 -1.3,2 -2.2,4.5c-0.1,-0.1 -0.2,-0.1 -0.2,-0.1c-0.4,0 -1.9,-0.6 -3.8,-1.9c-1.9,-1.3 -2.1,-2.4 -2.1,-2.7c0,-0.3 0.6,-1 1.2,-1.3c0.6,-0.4 0.8,-1.2 1.2,-1.9c0.4,-0.7 -0.2,-2.9 -0.4,-3.7c-0.5,1 -2.3,2.7 -2.7,4c-0.4,1.2 0.3,3.1 0.3,3.1c0.1,2.1 2.9,3.6 3.6,4c0.8,0.4 -0.1,0.5 -0.4,0.5c-0.3,0 -1.5,-0.7 -1.8,-0.9c-0.3,-0.2 -1.3,-0.2 -1.3,-0.2c0,0 -3.3,1 -2.5,1.8c0.8,0.8 2.4,0.8 3.7,0.7c1.2,-0.2 1.7,-0.8 2.2,-1c0.4,-0.2 1.3,-0.2 1.8,0c0.3,0.1 0.7,0.3 1.1,0.4c-0.1,0.2 -0.1,0.4 -0.2,0.6c-1.1,3.2 -2.9,3.7 -4.9,3.7c-1.9,0 -3.4,-0.2 -3.9,-0.8c-0.6,-0.6 -0.4,-1.7 -0.4,-2.7c0,-1 -0.5,-1.3 -1.1,-2.2c-0.6,-0.9 -1.6,-1.5 -1.6,-1.5c0,0 -0.1,1.5 0.2,2.7c0.3,1.1 1.6,1.7 1.9,2.6c0.4,0.8 0.6,1.1 -0.4,0.8c-1.1,-0.3 -2.1,-2 -2.6,-2.8c-0.5,-0.8 -0.7,-2.3 -0.6,-3.5c0,-1.2 -0.9,-1.7 -1.8,-2.3c-0.4,-0.3 -0.7,-0.5 -1,-0.8c0.3,-0.2 0.5,-0.4 0.8,-0.5c0.7,-0.4 1.2,-2.3 1.7,-3.1c0.4,-0.8 2.5,-1.8 6.5,-2.7c4,-1 6.7,1.4 9.1,3.2c2.3,1.3 1.1,3.3 0.6,4Zm23.2,-1.5c-0.4,-0.2 -0.6,-0.7 -0.7,-1.6c-0.1,-0.6 -0.1,-4.7 0,-9.2c0,-1.6 0.2,-2.9 0.5,-4.1c0.6,1 1,2 1.4,2.9c2,4.5 2.8,8 2.7,9.4c-0.1,1.1 -0.9,1.6 -1.4,1.9c-1.3,0.8 -2.3,0.8 -2.5,0.7Zm6.3,-3.9c-0.8,0.7 -1.2,-0.3 -1.2,-0.7c0,-0.4 -0.7,-2.6 -0.9,-3.2c-0.1,-0.5 -0.8,-2.4 -0.8,-2.4c-0.2,-0.6 -0.5,-1.3 -0.8,-2.1c2.1,1.4 5.1,1 5.6,0.9c0.7,-0.1 1,0.1 1.4,0.5c0.4,0.4 0.9,1.9 0.9,2.9c0,1.1 -3.4,3.4 -4.2,4.1Zm2.1,1.8c0,0.1 0,0.3 0,0.4c-0.1,0.7 0,0.9 -0.2,1.1c-0.2,0.2 -0.4,0.4 -1,0.1c-0.6,-0.2 0.5,-0.9 1.2,-1.6Zm-4.1,7.6c-1.1,0.4 -2.3,0.5 -3.5,0.3c-0.1,0 -0.2,0 -0.3,0c0.2,-0.3 0.5,-0.4 0.7,-0.7c1.9,-2.1 3.3,-3.5 4.4,-4c1,-0.5 1.7,-0.2 2.8,0.6c0.9,0.7 -0.5,1.4 -1.3,2c-0.8,0.7 -1.6,1.4 -2.8,1.8Zm7.1,-0.2c0.2,0.9 -0.1,1 -1,1.4c-0.9,0.4 -1.1,0.5 -1.9,0.5c-0.8,0 -1.4,0.1 -2.4,0.7c-0.3,0.2 -0.5,0.4 -0.7,0.7c0,-0.8 -0.1,-1.5 -0.1,-1.8c0.1,-0.5 0.4,-1.2 0.7,-1.7c0.3,-0.5 2.6,-2 3.1,-2.6c0.5,-0.5 2.1,1.9 2.3,2.8Zm-0.9,-4.6c-1.1,0 -1.1,0.3 -1.6,-0.1c-0.6,-0.4 -0.3,-0.7 -0.2,-0.9c0.3,-0.7 1,-0.6 1.8,-1c0.9,-0.4 0.9,-1.1 1,-1.8c0.1,-0.6 0,-1.6 0,-1.6c0,0 -0.5,0.1 -1,0.3c0.1,-0.2 0.3,-0.3 0.5,-0.5c1,-1 1.8,1.8 1.7,2.5c-0.1,1 1.1,1.6 2,1.9c0.3,0.1 0.7,0.3 1,0.6c-0.7,0.2 -1.4,0.4 -1.8,0.4c-0.6,0 -2.3,0.2 -3.4,0.2Zm9.6,-7.8c0.4,0.4 1.6,1.2 3.3,4c0.2,0.4 0.4,0.8 0.6,1.2c-0.4,0 -1.1,0 -2.1,-0.1c0,-0.4 0,-0.7 -0.1,-0.9c-0.1,-0.6 -1.6,-1.7 -2.1,-3c-0.6,-1.3 0,-1.6 0.4,-1.2Zm0,8c0.6,0.9 1.2,1.6 1.2,1.6c0,0 0.1,-1 0.4,-2.3l0,-0.1c0.5,-0.3 0.8,-0.5 1,-0.7c0.4,-0.3 1,-0.9 1.3,-1.2c0.8,2.4 0.3,4.8 -0.1,5.7c-0.5,1 -1.5,2.9 -2,3.1c-0.5,0.2 -1.3,0.5 -1.9,0.5c-0.6,0.1 -1.8,-0.3 -3.2,0.1c-0.1,0 -0.1,0 -0.2,0.1c0,-0.2 0,-0.3 0,-0.5c0.1,-1.6 -0.7,-2.4 -1.7,-3.4c-1.1,-1 -0.8,-2.1 -0.8,-2.6c0,-0.5 0.9,-0.6 1.6,-0.8c0.1,0 0.2,0 0.3,0c0.5,0.3 0.8,0.6 0.8,0.6c0,0 0,-0.2 -0.1,-0.5c0.5,0.2 1.2,0.4 2,0.6c0.5,0 1,-0.1 1.4,-0.2Zm-1.4,-9c0.8,0.6 0.4,2.3 0,3.7c-0.2,0.8 -0.1,1.5 0,2.2c-1.5,0.4 -1.8,1.7 -2,1.8c0,0 -0.1,0.1 -0.2,0.1c-0.1,-0.4 -0.3,-0.9 -0.4,-1.4c-0.5,-1.5 -1.4,-2 -2.3,-2.5c-0.9,-0.5 -0.6,-0.2 -1.6,-0.9c-1,-0.6 0.6,-1.6 1,-2c0.5,-0.4 1.6,-1.2 2.5,-2c0.2,-0.2 0.7,0.1 1.3,0.2c0.8,0.2 0.9,0.2 1.7,0.8Zm3.6,-5.2c-1.6,0 -2.7,2.3 -3,2.8c-2.2,1.3 -1.9,0.9 -2.4,0.8c-0.7,-0.2 0.3,-1.3 0.8,-1.8c0.7,-0.8 2.1,-2.7 2.6,-3.2c0.5,-0.5 1.9,-0.3 3.4,0c1.5,0.3 1.5,0.2 2.1,1.4c-1.2,0 -2.6,0 -3.5,0Zm12.1,-7.4c0.3,0.2 0.8,0.2 1.2,0.3c-0.4,0.7 -0.8,1.5 -1.3,2c-1.1,0.8 -3.5,3.2 -4,3.6c-0.5,0.4 -2.9,-0.3 -3.9,-0.4c-1,0 -0.5,-0.8 -0.2,-1.1c0.3,-0.3 1.3,-0.6 2.3,-1c1.1,-0.3 1.9,-1.3 2.6,-2.3c0.5,-0.8 0.9,-1.5 1.3,-2.1c0.8,0.5 1.5,0.8 2,1Zm-4.4,-4.9c0,1.6 0.9,2.7 2,3.5c-1.6,0.6 -4.1,2 -4.8,2.5c-0.8,0.6 -1.1,2.1 -1.2,2.5c-0.1,0.5 -0.9,1.2 -1.4,1.3c-0.5,0.1 -1.5,-0.1 -2.1,-0.3c-0.5,-0.2 -0.8,-0.1 -1.3,-0.1c-0.3,0 -0.4,-0.3 0,-1.2c0.4,-1.1 1.5,-5.1 1.6,-6.1c0.1,-1 0.1,-1 0.6,-1.5c0.5,-0.5 1.8,-2.1 2.5,-2.7c0.7,-0.6 1.1,-0.6 1.4,-0.4c0.2,0.4 2.5,2.3 2.7,2.5Zm-9.5,-11.2c0.3,-0.6 2.9,-2.8 3.5,-3.2c0.6,-0.4 1.4,-0.5 2,-0.4c0.6,0.1 2.3,0.5 3.9,1.1c1.6,0.5 3.1,-1.1 3.7,-1.2c0.1,0 0.3,-0.1 0.4,-0.2c-0.4,0.6 -1,1.4 -1.3,2.1c-0.7,1.4 0.5,3 0.7,3.6c0.1,0.6 -0.2,1.7 -0.7,2c-5.1,1.9 -8.2,6 -9,6.5c-0.6,0.3 -0.5,-0.2 -0.9,-2c-0.2,-0.8 -1.3,-4.5 -1.3,-4.9c-0.1,-0.5 0.5,-0.7 1.1,-1.1c0.6,-0.4 1.3,-0.2 1.3,-0.2c1.7,0.1 2.9,-0.3 3.6,-0.5c0.7,-0.3 1.2,-1.5 1.6,-2.1c0.4,-0.6 1.1,-1.4 1.1,-1.4c0,0 -1.6,0 -3,0c-1.4,0.1 -2.2,0.7 -2.9,1.3c-0.7,0.5 -1.3,2.1 -1.3,2.1c0,0 -0.6,0.3 -1.2,0.6c-0.6,0.3 -0.8,0.2 -1.2,-0.5c-0.3,-0.2 -0.4,-0.9 -0.1,-1.6Zm-3.7,7.7c0.4,-0.6 1.1,-1.8 1.3,-2.6c0.1,-0.2 0,-0.5 0,-0.8c0.5,-0.3 0.9,-0.6 1.1,-0.7c0.4,-0.3 0.9,-0.2 1.9,3.3c1.1,3.5 -0.3,7.6 -0.6,8.5c-0.3,0.9 -1.4,-1.2 -2,-2.3c-0.1,-0.2 -0.3,-0.5 -0.5,-0.8c0,-0.5 0.4,-0.9 0.7,-1.1c0.4,-0.3 0.7,-0.7 1.4,-1.4c0.7,-0.7 0.6,-3.6 0.3,-3.4c-0.3,0.2 -2,1.7 -2.3,2.3c-0.3,0.5 -0.2,2.5 -0.1,2.7c0,0.1 -0.1,0.4 -0.3,0.6c-0.6,-0.9 -1.3,-1.8 -1.5,-2.2c0,-0.6 0.3,-1.6 0.6,-2.1Zm-15,6c0.2,-1.7 0.2,-3.1 0.1,-4c1.5,0.2 2.8,-0.4 3.8,-1.4c0.9,-1 1.3,-1.4 1.3,-1.4c0,0 0.6,-0.2 1.4,-0.3c0.8,-0.1 1.9,0.2 4.2,1.5c1.5,0.9 3.2,2.6 4.6,4.4c-0.1,0 -0.2,0 -0.3,0.1c-0.3,0.2 -1.7,0.8 -3.7,1.1c-2,0.4 -2.8,-0.3 -3,-0.5c-0.2,-0.2 -0.2,-1 0,-1.6c0.1,-0.6 -0.2,-1.3 -0.4,-2c-0.2,-0.7 -1.9,-1.7 -2.5,-2.1c0.3,0.9 0.2,3.2 0.7,4.2c0.5,1 2.1,1.8 2.1,1.8c1.3,1.3 4.1,0.5 4.8,0.3c0.7,-0.2 0.2,0.4 0,0.6c-0.2,0.2 -1.4,0.5 -1.7,0.5c-0.3,0.1 -1,0.7 -1,0.7c0,0 -1.5,2.7 -0.5,2.7c1,0 2.1,-1 2.8,-1.8c0.7,-0.9 0.7,-1.6 0.8,-2c0.1,-0.4 0.7,-0.9 1.2,-1.1c0.3,-0.1 0.8,-0.4 1.1,-0.5c0.6,0.7 1.1,1.5 1.5,2.1c1.5,2.2 0.8,2.7 -0.5,5.4c-1.4,2.8 -6.2,7.1 -6.7,7.6c-0.6,0.5 -0.9,-0.8 -1,-1.6c0,-0.8 0.1,-1.3 0.5,-1.7c0.4,-0.4 1.8,-1.8 2.3,-2.3c0.5,-0.5 0.4,-1.8 0.3,-2.2c-0.1,-0.5 -0.1,-1.9 0,-2.4c-2.5,1.3 -3.6,2.6 -3.6,4.3c0,1.7 0.3,2.5 0.2,3.4c0,0.8 -0.9,-1 -1.1,-1.7c-0.2,-0.7 -1.6,-2.7 -2.4,-3.6c-0.8,-0.9 -1.3,-1.7 -1.9,-2.9c-0.6,-1.2 -2.4,-1.7 -3.5,-1.9l-0.1,0c0.1,-0.6 0.1,-1.2 0.2,-1.7Zm-0.8,4.3c1.2,1.6 3.1,2 4,2.1c1.3,0.1 3.7,3.6 4,4.2c0.3,0.6 0.5,0.9 -0.2,0.8c-0.7,-0.1 -1.3,-0.6 -1.5,-0.8c-0.9,-1.3 -3.6,-2 -4.3,-1.8c-0.4,0.1 -1.1,0.2 -1.6,0.2c-0.2,-0.4 -0.4,-0.7 -0.5,-0.8c-0.2,-0.4 -0.5,-1 -0.9,-1.6c0.5,-1.1 0.8,-1.9 1,-2.3Zm-1.2,-10.9c0.1,0.3 0.1,0.5 0.2,0.8c-0.5,0.5 -0.9,0.9 -1.1,1.1c0.2,-0.1 0.6,0 1.2,0.2c0,2.1 -0.8,4.4 -1.2,5.8c-0.3,0.8 -0.6,1.7 -1,2.6c-1.1,-1.1 -2.3,-2.1 -2.7,-2.7c-0.7,-0.9 -0.5,-1.3 -0.1,-1.7c0.4,-0.4 1,-0.7 1.8,-1.5c0.8,-0.8 1.1,-1.6 1.2,-2.6c0.1,-1 0,-2.4 0,-2.8c-1.4,0.5 -2.9,1.7 -3.5,2.8c-0.6,1.1 -0.1,3.5 -0.1,4.3c0,0.8 -1.3,-0.1 -2.1,-0.5c-1.1,-0.6 -2.2,-1.2 -2.8,-1.7c-0.6,-0.6 -0.4,-1.7 -0.3,-2.3c0.1,-0.6 0.7,-1.2 1.1,-2.6c0.1,-0.3 0.1,-0.6 0.1,-0.9c0.7,0.3 1.8,0.6 2.5,0.7c0.9,0.2 2.9,-1 3.3,-1.2c0.4,-0.2 1.7,-0.2 2.3,-0.2c0.6,0.1 1.1,2.1 1.2,2.4Zm-17.8,-3.6c0.2,-0.9 0.3,-2.2 0.4,-2.9c0.1,-0.7 0.1,-1.7 0.3,-2.1c0.1,-0.3 1.3,0.1 2.2,0.4c0,0.1 0,0.1 0,0.2c0,1.2 1,2.2 2.2,2.2c1.2,0 2.2,-1 2.2,-2.2c0,-1.2 -1,-2.2 -2.2,-2.2c-1,0 -1.8,0.7 -2.1,1.6c-0.9,-0.2 -2,-0.5 -2.3,-0.6c-0.4,-0.2 -0.7,-1.5 -0.4,-2.6c0.3,-1.1 1.1,-1.4 1.7,-1.8c0.2,-0.1 0.4,-0.4 0.5,-0.6c1.5,1 3.9,1.9 5.6,2.4c0.2,0.1 0.4,0.2 0.6,0.3c0.2,0.5 0.5,1.1 0.7,1.8c0.4,1.5 0.9,2.1 2.1,2.9c1,0.7 2.4,0.9 2.7,0.9c1,1.2 1.7,2.2 1.9,2.5c0.5,0.7 -0.2,0.9 -1.1,0.7c-0.9,-0.1 -1.5,-0.5 -2.1,-1c-0.6,-0.5 -2,-0.6 -2.9,-0.7c-0.5,0 -1.5,0.4 -2.4,0.8c-0.2,-0.4 -0.5,-0.8 -0.7,-1c-0.5,-0.5 -0.6,-0.9 -0.8,-1.2c-0.5,0.6 -0.9,2.2 -1.4,3.2c-0.5,1 0.7,3.5 1.2,4c0.5,0.5 0.4,0.6 0.5,1.3c0.1,0.7 -1.5,-0.3 -1.8,-0.5c-2,-1.1 -3.3,-2.1 -4.1,-3c-1,-1.4 -0.7,-1.6 -0.5,-2.8Zm-3.8,16.5c0.1,-0.5 0.5,-1.3 0.6,-2.8c0.1,-1.5 -1.1,-2.8 -1.4,-3.2c-0.3,-0.4 -0.9,-1.4 -0.9,-1.4c0,0 -0.8,2.6 -1,4.2c-0.1,1.7 1.2,3.2 1.9,4c0.7,0.7 0.6,1.4 0.2,2.5c-0.3,0.7 -1.8,-1.3 -1.8,-1.3c-1.1,-1 -2.8,-3.1 -4.3,-5.3l0,-0.1c0,-0.3 0.2,-1.7 0.9,-3.5c0.7,-1.8 1.7,-2.1 1.9,-2.2c0.2,-0.1 0.9,0.4 1.3,0.8c0.4,0.4 1.1,0.5 1.8,0.7c0.4,0.1 1.1,-0.1 1.7,-0.3c0.1,0.2 0.1,0.4 0.2,0.5c-0.7,0.4 -1.1,1.1 -1.1,1.9c0,1.2 1,2.1 2.1,2.1c1.2,0 2.1,-0.9 2.1,-2.1c0,-1.2 -1,-2.1 -2.1,-2.1c-0.2,0 -0.4,0 -0.5,0.1c-0.1,-0.2 -0.1,-0.4 -0.2,-0.5c0.3,-0.1 0.6,-0.3 0.8,-0.4c-0.3,-0.1 -0.6,-0.2 -1,-0.4c-0.3,-1.6 0.1,-4.2 0.2,-5.1c0.1,-1 0.7,-0.7 0.8,-0.5c0.1,0.2 2.9,3.1 4.5,4c1.6,1 4.4,3 5.2,3.5c0.8,0.4 0,0.3 -0.3,0.1c-0.3,-0.2 -1.1,-0.9 -1.9,-1.5c-0.8,-0.6 -2,-0.5 -3,-0.1c-1.1,0.3 -1.9,0.3 -2.4,0.3c0.4,0.7 0.8,1.2 1.3,1.6c-0.5,0.8 -1.1,1.9 -1.6,2.5c-0.6,0.9 -2.9,5.1 -3.6,5.9c-0.8,0.7 -0.5,-1.4 -0.4,-1.9Zm1.3,11c0,-0.5 0.1,-0.9 0.1,-1.3c0.9,1.2 1.7,2.1 2,2.4c0.5,0.5 -0.5,1 -1.5,1.3c0.1,0 0.1,-0.1 -0.1,-0.1c-0.5,-0.2 -0.5,-1.4 -0.5,-2.3Zm1.8,4.1c-0.6,0.3 -1.3,0.8 -2.6,1.6c-0.1,0.1 -0.2,0.2 -0.3,0.3c0,-0.4 0,-0.7 0,-1c-0.1,-1.5 1.7,-2.1 3.2,-2.4c0.4,-0.1 0.8,0 1.2,0.1c-0.3,0.6 -0.9,1.2 -1.5,1.4Zm1.9,-5.9c0.1,0 0.1,0 0,0c0,0.1 0,0.1 0,0Zm0.2,0.2c0,0 -0.1,0 0,0c0,-0.1 0,0 0,0Zm8.1,5.6c-0.7,-0.4 -6,-3.7 -7,-4.6c-0.1,-0.1 -0.1,-0.1 -0.2,-0.2c0.5,0.1 1.2,0.2 1.4,0.2c0.5,0.1 2.1,-1 2.5,-1.2c0.4,-0.2 0.8,-0.7 0.5,-0.6c-0.3,0.1 -0.8,-0.2 -1.7,-0.7c-0.6,-0.4 -1,-0.4 -1.8,-0.4c0.4,-0.3 0.8,-0.7 1.3,-1.4c0.8,-1.1 0.1,-5.3 -0.3,-5c-0.3,0.3 -2.7,2.5 -3.2,3.3c-0.5,0.8 -0.1,3.5 0,3.8c0.1,0.1 -0.1,0.4 -0.3,0.6c-1.5,-1.4 -3.5,-3.1 -4.1,-3.9c-0.9,-1.1 0.3,-2.4 0.8,-3.2l5.6,-1.7c0,0 0.7,0.2 1.7,0.3c1,0.1 1.8,-0.9 2.2,-1.5c0.4,-0.5 1.3,-0.9 1.5,-1.3c-0.6,-0.2 -3.7,-0.6 -4.7,-0.3c-1,0.3 -1,1.9 -1.1,2.1c0,0.2 -1.3,0.6 -1.3,0.6c0,0 -1.2,0.4 -2.3,0.5c-1.1,0.1 -0.9,-0.3 -0.3,-1.3c0.5,-0.8 2.4,-4 3.3,-5.6c2.1,1.6 4.4,0.8 4.9,0.4c0.7,-0.5 2.3,-0.1 3,0c0.7,0.1 2,1.1 4.5,3.5c0.3,0.3 0.6,0.6 0.9,1c-0.3,0.8 -0.7,1.5 -1,2.1c-0.7,1.5 -1.2,3.8 -1.8,5.1c-0.5,1.3 -1.1,0.5 -1.1,-0.2c0,-0.7 -0.1,-2.3 -0.4,-3c-0.3,-0.7 -0.9,-1.2 -1.5,-1.7c-0.6,-0.4 -1.5,-0.8 -2.2,-1.4c0.1,0.4 0,2 0,3.1c0,1.1 1.1,2.7 2.2,3.3c1.1,0.6 1.5,0.2 2,1.1c0.4,0.6 0.2,0.4 0.1,1.8c-0.3,2 -0.2,2.6 -0.7,4.8c-0.1,1.8 -0.3,2.1 -1.4,1.6Z" style="fill:#fff;fill-rule:nonzero;"/><path d="M111.5,150.9l0,-0.1l-0.1,0c-1.7,-0.3 -23.5,-4.3 -48.4,-4.6l-2.9,0c-24.8,0.3 -46.5,4.2 -48.4,4.6l-0.1,0l0,35.6c20.8,6.7 40.4,9.2 49.9,9.2c0.1,0 0,0 0,0c9.6,0 29.1,-2.5 49.9,-9.2c0.1,-5.4 0.1,-35.5 0.1,-35.5Z" style="fill:#697f8a;fill:none;"/><g id="letters"><path d="M43.7,163c-0.2,0.2 -0.8,0.3 -1,0.1c-0.5,-2 -1.9,-4.5 -6,-4.5c-3.9,0 -7.9,2.8 -7.9,9.1c0,6.6 4.1,9.8 8.1,9.8c3.9,0 5.6,-2.6 6.5,-4.6c0.3,-0.3 0.8,-0.2 0.9,0.1c-0.2,2.1 -1.1,4.1 -1.5,4.7c-0.4,0.1 -0.7,0.2 -1.1,0.3c-0.7,0.2 -2.8,0.7 -4.8,0.7c-3.1,0 -5.7,-0.6 -7.9,-2.1c-2.5,-1.6 -4.4,-4.5 -4.4,-8.5c0,-3.6 1.6,-6.4 3.9,-8.2c2.3,-1.7 5.4,-2.6 8.6,-2.6c1.8,0 3.9,0.3 5.4,0.7c0.4,0.1 0.6,0.1 0.9,0.2c-0.1,0.7 0,2.5 0.3,4.8Z" style="fill:#fff;fill-rule:nonzero;"/><path d="M47.2,177.4c-0.6,-0.7 -1,-2.8 -0.9,-4.7c0.2,-0.3 0.7,-0.3 1,-0.1c0.6,1.6 2.2,4.9 5.3,4.9c2.4,0 3.7,-1.4 3.7,-3.3c0,-1.8 -0.8,-3.2 -3.2,-4.5l-1.3,-0.7c-2.3,-1.3 -4.4,-3.2 -4.4,-6c0,-3.1 2.3,-5.7 6.8,-5.7c1.6,0 2.8,0.4 4.2,0.7c0.3,0.7 0.7,2.7 0.7,4.2c-0.2,0.3 -0.7,0.3 -1,0.1c-0.5,-1.6 -1.5,-3.7 -4.2,-3.7c-2.5,0 -3.5,1.6 -3.5,3.3c0,1.3 0.9,2.7 2.9,3.8l1.9,1c2,1.1 4.2,3 4.2,6.1c0,3.5 -2.7,6 -7.2,6c-2.8,0 -4.4,-1 -5,-1.4Z" style="fill:#fff;fill-rule:nonzero;"/><path d="M63.6,162.3c0,-3.3 -0.3,-3.3 -1.7,-3.6l-0.5,-0.1c-0.2,-0.2 -0.2,-0.7 0.1,-0.9c1.2,0.1 2.6,0.1 4,0.1c1.4,0 2.8,0 4.2,-0.1c0.2,0.1 0.3,0.7 0.1,0.9l-0.7,0.1c-1.5,0.2 -1.7,0.3 -1.7,3.6l0,7.1c0,4.3 1.3,7.9 5.6,7.9c4.1,0 5.7,-3.1 5.7,-7.8l0,-3.9c0,-2.3 0,-5.2 -0.6,-6.1c-0.3,-0.5 -0.8,-0.7 -1.5,-0.8l-0.6,-0.1c-0.3,-0.2 -0.2,-0.8 0.1,-0.9c1.1,0.1 2.2,0.1 3.4,0.1c1.3,0 2.1,0 3.3,-0.1c0.2,0.2 0.3,0.7 0.1,0.9l-0.7,0.2c-0.6,0.1 -1.1,0.2 -1.4,0.7c-0.4,0.9 -0.4,3.7 -0.4,6.1l0,3.7c0,2.8 -0.4,5.4 -2,7.2c-1.6,1.7 -3.9,2.3 -6.1,2.3c-2.9,0 -5,-0.6 -6.4,-2c-1.4,-1.3 -2,-3.5 -2,-6.6l0,-7.9l-0.3,0Z" style="fill:#fff;fill-rule:nonzero;"/><path d="M94.4,157.8c2,0 3.7,0 4.4,-0.1c0,0.7 0,3 0.1,4.5c-0.1,0.2 -0.7,0.3 -1,0.1c-0.3,-1.8 -0.8,-2.7 -2,-3c-0.8,-0.2 -1.6,-0.2 -2.6,-0.2l-1.6,0c-1.3,0 -1.3,0.1 -1.3,1.8l0,5.5c0,0.8 0,0.8 0.7,0.8l1.9,0c2.7,0 3.2,-0.1 3.5,-1.4l0.2,-1.1c0.2,-0.2 0.8,-0.2 0.9,0c0,0.8 -0.1,2 -0.1,3.1c0,1.1 0.1,2.3 0.1,3.2c-0.2,0.2 -0.7,0.2 -0.9,0l-0.2,-1.2c-0.3,-1.3 -0.8,-1.4 -3.5,-1.4l-1.8,0c-0.7,0 -0.7,0.1 -0.7,0.8l0,4.3c0,3.3 0.3,3.3 1.7,3.5l1.3,0.2c0.2,0.2 0.2,0.8 -0.1,0.9c-2,-0.1 -3.4,-0.1 -4.7,-0.1c-1.4,0 -2.8,0 -4.2,0.1c-0.2,-0.1 -0.3,-0.7 -0.1,-0.9l0.7,-0.1c1.5,-0.2 1.7,-0.3 1.7,-3.6l0,-11.5c0,-3.3 -0.3,-3.4 -1.7,-3.6l-0.4,-0.1c-0.2,-0.2 -0.2,-0.8 0.1,-0.9c1.1,0.1 2.5,0.1 3.8,0.1l5.8,0l0,0.3Z" style="fill:#fff;fill-rule:nonzero;"/></g></g></svg>
