<?xml version="1.0" encoding="UTF-8" standalone="no"?><!DOCTYPE svg PUBLIC "-//W3C//DTD SVG 1.1//EN" "http://www.w3.org/Graphics/SVG/1.1/DTD/svg11.dtd"><svg width="100%" height="100%" viewBox="0 0 468 174" version="1.1" xmlns="http://www.w3.org/2000/svg" xmlns:xlink="http://www.w3.org/1999/xlink" xml:space="preserve" style="fill-rule:evenodd;clip-rule:evenodd;stroke-linejoin:round;stroke-miterlimit:1.41421;"><g><path d="M112.572,3.234c-23.523,17.182 -5.059,47.888 22.136,37.123c1.888,-0.748 4.234,0.675 7.891,4.785c15.752,17.709 17.562,19.731 11.821,24.432c-2.91,2.383 -3.708,5.729 -4.218,6.4c-5.68,7.475 -3.667,17.969 -2.162,26.641c0.629,3.625 2.942,7.915 3.743,9.091c1.377,2.02 1.954,3.699 3.953,6.316c4.322,5.659 5.087,5.858 -2.017,13.289c-5.593,5.85 -6.426,6.216 -11.106,4.875c-9.582,-2.745 -23.571,8.09 -23.917,18.525c-0.063,1.898 0.335,-1.699 2.047,6.167c2.151,9.887 24.319,14.017 33.886,5.5c5.06,-4.506 7.786,-20.837 3.479,-20.837c-0.904,0 -1.582,-0.949 -1.582,-2.213c0,-3.005 10.821,-14.845 13.441,-14.337c4.7,0.911 21.027,5.959 32.095,3.06c13.281,-3.479 21.056,-10.574 25.865,-16.12c3.527,-5.254 6.126,-9.047 6.389,-11.893c0.44,-4.772 0.948,-5.201 7.114,-6.005c6.836,-0.892 6.285,0.125 10.542,8.78c1.823,3.707 3.158,9.008 4.162,10.98c1.253,2.46 -0.038,-0.139 1.582,4.032c1.01,2.6 0.727,1.925 1.581,3.794c2.947,6.452 5.059,6.847 25.297,5.776c0.885,-0.047 1.694,-3.009 2.581,-5.036c1.015,-2.32 2.747,-7.538 4.455,-13.23c1.707,-5.692 5.058,-11.425 5.613,-13.044c0.769,-2.244 1.581,-2.767 11.067,-2.767c10.91,0 11.068,0.061 11.068,4.269c0,2.372 1.067,4.293 1.344,5.139c1.859,5.67 0.573,2.057 2.332,5.77c7.389,15.597 42.439,27.078 57.67,15.013c6.64,-5.26 14.546,-15.171 14.546,-15.171c0,0 1.581,-1.106 1.581,-2.371c0,-4.722 -21.029,-3.321 -26.088,1.739c-9.713,9.712 -29.25,1.897 -29.25,-11.7c0,-0.608 19.052,-1.285 42.294,-1.502c42.215,-0.395 42.299,-0.387 45.255,4.032c6.345,9.486 22.158,11.298 30.874,3.536c7.273,-6.477 7.424,-18.88 0.316,-25.988c-8.896,-8.896 -33.361,-3.794 -33.361,6.957c0,0.959 -5.85,1.581 -14.862,1.581c-16.285,0 -15.573,0.46 -17.619,-11.384c-0.573,-3.32 -3.884,-8.747 -3.884,-8.747c0,0 -8.221,-8.232 -14.229,-10.011c-3.075,-0.91 -8.064,-2.39 -11.226,-3.331c-9.17,-2.728 -26.837,1.747 -33.677,8.529c-2.372,2.352 -2.684,2.418 -5.771,5.39c-3.469,3.341 -4.822,8.937 -4.822,8.937c0,0 -1.423,4.688 -1.423,6.744c0,3.662 -0.475,3.873 -8.696,3.873c-6.008,0 -8.696,-0.635 -8.696,-2.055c0,-3.004 5.572,-12.465 6.324,-14.546c3.237,-8.953 5.02,-12.333 4.292,-14.704c-0.188,-0.613 -4.924,-0.857 -10.616,-0.546c-11.068,0.603 -12.032,-0.828 -15.811,9.716c-2.074,5.786 -2.027,5.864 -3.673,9.696c-4.598,10.707 -3.2,12.439 -11.347,12.439c-7.115,0 -4.809,-0.436 -7.115,-6.324c-1.777,-4.536 -3.491,-9.803 -4.111,-14.23c-0.555,-3.96 -3.154,-7.857 -3.696,-9.427c-0.064,-0.185 -0.099,-0.455 -0.099,-0.455c0,0 -3.636,-1.976 -12.648,-1.976c-9.012,0 -12.649,0.568 -12.649,1.976c0,1.107 2.838,3.154 3.163,3.977c4.638,11.751 4.542,11.373 5.533,13.257c1.332,2.53 1.94,5.781 2.372,7.273c1.785,6.16 0.632,5.929 -2.372,5.929c-5.059,0 -5.534,-0.406 -5.534,-4.743c0,-2.688 -3.234,-6.324 -3.738,-8.38c-1.009,-4.111 -12.072,-13.755 -12.072,-13.755l-11.44,-5.325c0,0 -8.561,-2.581 -15.518,-2.581c-7.273,0 -14.625,2.934 -18.419,3.637c-3.708,0.686 -5.779,-0.791 -15.746,-11.226c-10.51,-10.952 -10.156,-11.462 -10.026,-16.127c0.862,0 1.57,-5.004 1.542,-9.725c-0.069,-11.942 -19.349,-29.333 -36.01,-17.163Zm19.131,8.129c6.483,3.413 8.061,12.052 3.196,17.494c-3.7,4.14 -15.212,3.953 -19.481,-0.316c-9.49,-9.491 3.953,-23.671 16.285,-17.178Zm72.044,63.029l6.536,5.534l3.399,3.953c0,0 1.344,2.055 1.344,4.743c0,2.688 0,8.38 0,10.435c0,2.056 -3.162,5.376 -3.162,5.376l-8.221,7.905c0,0 -7.115,3.163 -12.333,3.163c-5.217,0 -9.486,-1.582 -9.486,-1.582c0,0 -11.605,-3.904 -14.838,-15.139c-3.502,-12.169 2.22,-16.708 5,-19.794c2.537,-2.816 6.526,-4.344 6.676,-4.435c8.073,-4.905 25.085,-0.159 25.085,-0.159Zm165.31,0.475c1.404,1.423 3.667,5.798 3.667,5.798c0,0 2.461,4.732 0.727,4.81c-24.033,1.081 -31.163,0.306 -30.691,-3.335c0.267,-2.056 1.836,-4.269 1.836,-4.269l6.138,-4.526c0,0 14.311,-2.544 18.323,1.522Zm84.396,11.485c7.043,4.933 2.054,16.707 -7.115,16.5c-11.894,-0.268 -11.541,-6.476 -11.541,-10.277c0,-7.273 11.622,-11.149 18.656,-6.223Zm-307.678,59.742c1.581,1.186 2.47,3.016 2.846,3.953c1.081,2.692 1,4.668 1,5.933c0,1.265 -2.107,5.372 -3.372,5.372c-1.264,0 -7.905,2.771 -12.332,-0.324c-5.376,-3.759 -5.718,-9.78 -0.791,-13.894c4.269,-3.565 8.787,-3.936 12.649,-1.04Z" style="fill:#697f8a;fill-rule:nonzero;"/><path d="M5.533,38.881c-2.907,2.19 -4.743,37.725 -4.743,91.798c0,0.087 4.822,0.587 10.672,1.107c10.624,0.944 10.673,0.869 10.673,-16.365c0,-17.312 0,-17.312 19.921,-17.312c24.349,0 30.555,-2.517 37.039,-15.021c3.525,-6.798 2.855,-27.692 -1.04,-32.412c-5.61,-6.798 -18.784,-11.879 -20.82,-12.712c-6.325,-2.584 -48.035,-1.845 -51.702,0.917Zm47.907,17.663c7.747,4.418 8.459,15.098 1.423,21.359c-2.537,2.257 -6.087,2.814 -17.945,2.814c-14.704,0 -14.783,-0.072 -14.783,-13.439c0,-13.44 0,-13.44 13.281,-13.44c9.644,0 14.58,0.741 18.024,2.706Z" style="fill:#697f8a;fill-rule:nonzero;"/><path d="M116.999,58.417c-7.431,2.067 -15.008,4.696 -18.789,7.948c-0.6,0.516 -8.508,9.767 -8.508,14.984c0,2.214 -1.162,12.886 -1.162,27.432c0,23.242 0.041,23.32 12.016,23.015c14.433,-0.368 12.961,2.203 11.592,-20.248c-0.877,-14.388 -0.639,-20.234 0.986,-24.191c2.013,-4.901 6.956,-11.08 8.134,-10.169c0.266,0.205 3.953,0.367 8.38,0.367c7.905,0 7.905,0 7.905,-10.277c0,-10.277 0,-10.277 -8.3,-10.119c-4.585,0.087 -10.07,0.65 -12.254,1.258Z" style="fill:#697f8a;fill-rule:nonzero;"/></g></svg>
